0
SECTION
2
HEADER
9
$INSUNITS
70
4
0
ENDSEC
0
SECTION
2
TABLES
0
TABLE
2
LTYPE
0
LTYPE
72
65
70
64
2
CONTINUOUS
3
______
73
0
40
0
0
ENDTAB
0
TABLE
2
LAYER
0
ENDTAB
0
ENDSEC
0
SECTION
2
ENTITIES
0
LINE
8
0
10
3.025
20
-2.525
11
16.025
21
-2.525
0
LINE
8
0
10
3.025
20
-16.525
11
16.025
21
-16.525
0
LINE
8
0
10
2.525
20
-3.025
11
2.525
21
-16.025
0
LINE
8
0
10
16.525
20
-3.025
11
16.525
21
-16.025
0
ARC
8
0
10
3.025
20
-3.025
40
0.5
50
90
51
180
0
ARC
8
0
10
16.025
20
-3.025
40
0.5
50
0
51
90
0
ARC
8
0
10
3.025
20
-16.025
40
0.5
50
180
51
270
0
ARC
8
0
10
16.025
20
-16.025
40
0.5
50
270
51
0
0
LINE
8
0
10
31.6
20
-2.525
11
44.6
21
-2.525
0
LINE
8
0
10
31.6
20
-16.525
11
44.6
21
-16.525
0
LINE
8
0
10
31.1
20
-3.025
11
31.1
21
-16.025
0
LINE
8
0
10
45.1
20
-3.025
11
45.1
21
-16.025
0
ARC
8
0
10
31.6
20
-3.025
40
0.5
50
90
51
180
0
ARC
8
0
10
44.6
20
-3.025
40
0.5
50
0
51
90
0
ARC
8
0
10
31.6
20
-16.025
40
0.5
50
180
51
270
0
ARC
8
0
10
44.6
20
-16.025
40
0.5
50
270
51
0
0
LINE
8
0
10
50.65
20
-2.525
11
63.65
21
-2.525
0
LINE
8
0
10
50.65
20
-16.525
11
63.65
21
-16.525
0
LINE
8
0
10
50.15
20
-3.025
11
50.15
21
-16.025
0
LINE
8
0
10
64.15
20
-3.025
11
64.15
21
-16.025
0
ARC
8
0
10
50.65
20
-3.025
40
0.5
50
90
51
180
0
ARC
8
0
10
63.65
20
-3.025
40
0.5
50
0
51
90
0
ARC
8
0
10
50.65
20
-16.025
40
0.5
50
180
51
270
0
ARC
8
0
10
63.65
20
-16.025
40
0.5
50
270
51
0
0
LINE
8
0
10
69.7
20
-2.525
11
82.7
21
-2.525
0
LINE
8
0
10
69.7
20
-16.525
11
82.7
21
-16.525
0
LINE
8
0
10
69.2
20
-3.025
11
69.2
21
-16.025
0
LINE
8
0
10
83.2
20
-3.025
11
83.2
21
-16.025
0
ARC
8
0
10
69.7
20
-3.025
40
0.5
50
90
51
180
0
ARC
8
0
10
82.7
20
-3.025
40
0.5
50
0
51
90
0
ARC
8
0
10
69.7
20
-16.025
40
0.5
50
180
51
270
0
ARC
8
0
10
82.7
20
-16.025
40
0.5
50
270
51
0
0
LINE
8
0
10
88.75
20
-2.525
11
101.75
21
-2.525
0
LINE
8
0
10
88.75
20
-16.525
11
101.75
21
-16.525
0
LINE
8
0
10
88.25
20
-3.025
11
88.25
21
-16.025
0
LINE
8
0
10
102.25
20
-3.025
11
102.25
21
-16.025
0
ARC
8
0
10
88.75
20
-3.025
40
0.5
50
90
51
180
0
ARC
8
0
10
101.75
20
-3.025
40
0.5
50
0
51
90
0
ARC
8
0
10
88.75
20
-16.025
40
0.5
50
180
51
270
0
ARC
8
0
10
101.75
20
-16.025
40
0.5
50
270
51
0
0
LINE
8
0
10
107.8
20
-2.525
11
120.8
21
-2.525
0
LINE
8
0
10
107.8
20
-16.525
11
120.8
21
-16.525
0
LINE
8
0
10
107.3
20
-3.025
11
107.3
21
-16.025
0
LINE
8
0
10
121.3
20
-3.025
11
121.3
21
-16.025
0
ARC
8
0
10
107.8
20
-3.025
40
0.5
50
90
51
180
0
ARC
8
0
10
120.8
20
-3.025
40
0.5
50
0
51
90
0
ARC
8
0
10
107.8
20
-16.025
40
0.5
50
180
51
270
0
ARC
8
0
10
120.8
20
-16.025
40
0.5
50
270
51
0
0
LINE
8
0
10
126.85
20
-2.525
11
139.85
21
-2.525
0
LINE
8
0
10
126.85
20
-16.525
11
139.85
21
-16.525
0
LINE
8
0
10
126.35
20
-3.025
11
126.35
21
-16.025
0
LINE
8
0
10
140.35
20
-3.025
11
140.35
21
-16.025
0
ARC
8
0
10
126.85
20
-3.025
40
0.5
50
90
51
180
0
ARC
8
0
10
139.85
20
-3.025
40
0.5
50
0
51
90
0
ARC
8
0
10
126.85
20
-16.025
40
0.5
50
180
51
270
0
ARC
8
0
10
139.85
20
-16.025
40
0.5
50
270
51
0
0
LINE
8
0
10
145.9
20
-2.525
11
158.9
21
-2.525
0
LINE
8
0
10
145.9
20
-16.525
11
158.9
21
-16.525
0
LINE
8
0
10
145.4
20
-3.025
11
145.4
21
-16.025
0
LINE
8
0
10
159.4
20
-3.025
11
159.4
21
-16.025
0
ARC
8
0
10
145.9
20
-3.025
40
0.5
50
90
51
180
0
ARC
8
0
10
158.9
20
-3.025
40
0.5
50
0
51
90
0
ARC
8
0
10
145.9
20
-16.025
40
0.5
50
180
51
270
0
ARC
8
0
10
158.9
20
-16.025
40
0.5
50
270
51
0
0
LINE
8
0
10
164.95
20
-2.525
11
177.95
21
-2.525
0
LINE
8
0
10
164.95
20
-16.525
11
177.95
21
-16.525
0
LINE
8
0
10
164.45
20
-3.025
11
164.45
21
-16.025
0
LINE
8
0
10
178.45
20
-3.025
11
178.45
21
-16.025
0
ARC
8
0
10
164.95
20
-3.025
40
0.5
50
90
51
180
0
ARC
8
0
10
177.95
20
-3.025
40
0.5
50
0
51
90
0
ARC
8
0
10
164.95
20
-16.025
40
0.5
50
180
51
270
0
ARC
8
0
10
177.95
20
-16.025
40
0.5
50
270
51
0
0
LINE
8
0
10
184
20
-2.525
11
197
21
-2.525
0
LINE
8
0
10
184
20
-16.525
11
197
21
-16.525
0
LINE
8
0
10
183.5
20
-3.025
11
183.5
21
-16.025
0
LINE
8
0
10
197.5
20
-3.025
11
197.5
21
-16.025
0
ARC
8
0
10
184
20
-3.025
40
0.5
50
90
51
180
0
ARC
8
0
10
197
20
-3.025
40
0.5
50
0
51
90
0
ARC
8
0
10
184
20
-16.025
40
0.5
50
180
51
270
0
ARC
8
0
10
197
20
-16.025
40
0.5
50
270
51
0
0
LINE
8
0
10
203.05
20
-2.525
11
216.05
21
-2.525
0
LINE
8
0
10
203.05
20
-16.525
11
216.05
21
-16.525
0
LINE
8
0
10
202.55
20
-3.025
11
202.55
21
-16.025
0
LINE
8
0
10
216.55
20
-3.025
11
216.55
21
-16.025
0
ARC
8
0
10
203.05
20
-3.025
40
0.5
50
90
51
180
0
ARC
8
0
10
216.05
20
-3.025
40
0.5
50
0
51
90
0
ARC
8
0
10
203.05
20
-16.025
40
0.5
50
180
51
270
0
ARC
8
0
10
216.05
20
-16.025
40
0.5
50
270
51
0
0
LINE
8
0
10
222.1
20
-2.525
11
235.1
21
-2.525
0
LINE
8
0
10
222.1
20
-16.525
11
235.1
21
-16.525
0
LINE
8
0
10
221.6
20
-3.025
11
221.6
21
-16.025
0
LINE
8
0
10
235.6
20
-3.025
11
235.6
21
-16.025
0
ARC
8
0
10
222.1
20
-3.025
40
0.5
50
90
51
180
0
ARC
8
0
10
235.1
20
-3.025
40
0.5
50
0
51
90
0
ARC
8
0
10
222.1
20
-16.025
40
0.5
50
180
51
270
0
ARC
8
0
10
235.1
20
-16.025
40
0.5
50
270
51
0
0
LINE
8
0
10
241.15
20
-2.525
11
254.15
21
-2.525
0
LINE
8
0
10
241.15
20
-16.525
11
254.15
21
-16.525
0
LINE
8
0
10
240.65
20
-3.025
11
240.65
21
-16.025
0
LINE
8
0
10
254.65
20
-3.025
11
254.65
21
-16.025
0
ARC
8
0
10
241.15
20
-3.025
40
0.5
50
90
51
180
0
ARC
8
0
10
254.15
20
-3.025
40
0.5
50
0
51
90
0
ARC
8
0
10
241.15
20
-16.025
40
0.5
50
180
51
270
0
ARC
8
0
10
254.15
20
-16.025
40
0.5
50
270
51
0
0
LINE
8
0
10
260.2
20
-2.525
11
273.2
21
-2.525
0
LINE
8
0
10
260.2
20
-16.525
11
273.2
21
-16.525
0
LINE
8
0
10
259.7
20
-3.025
11
259.7
21
-16.025
0
LINE
8
0
10
273.7
20
-3.025
11
273.7
21
-16.025
0
ARC
8
0
10
260.2
20
-3.025
40
0.5
50
90
51
180
0
ARC
8
0
10
273.2
20
-3.025
40
0.5
50
0
51
90
0
ARC
8
0
10
260.2
20
-16.025
40
0.5
50
180
51
270
0
ARC
8
0
10
273.2
20
-16.025
40
0.5
50
270
51
0
0
LINE
8
0
10
3.025
20
-21.575
11
16.025
21
-21.575
0
LINE
8
0
10
3.025
20
-35.575
11
16.025
21
-35.575
0
LINE
8
0
10
2.525
20
-22.075
11
2.525
21
-35.075
0
LINE
8
0
10
16.525
20
-22.075
11
16.525
21
-35.075
0
ARC
8
0
10
3.025
20
-22.075
40
0.5
50
90
51
180
0
ARC
8
0
10
16.025
20
-22.075
40
0.5
50
0
51
90
0
ARC
8
0
10
3.025
20
-35.075
40
0.5
50
180
51
270
0
ARC
8
0
10
16.025
20
-35.075
40
0.5
50
270
51
0
0
LINE
8
0
10
31.6
20
-21.575
11
44.6
21
-21.575
0
LINE
8
0
10
31.6
20
-35.575
11
44.6
21
-35.575
0
LINE
8
0
10
31.1
20
-22.075
11
31.1
21
-35.075
0
LINE
8
0
10
45.1
20
-22.075
11
45.1
21
-35.075
0
ARC
8
0
10
31.6
20
-22.075
40
0.5
50
90
51
180
0
ARC
8
0
10
44.6
20
-22.075
40
0.5
50
0
51
90
0
ARC
8
0
10
31.6
20
-35.075
40
0.5
50
180
51
270
0
ARC
8
0
10
44.6
20
-35.075
40
0.5
50
270
51
0
0
LINE
8
0
10
50.65
20
-21.575
11
63.65
21
-21.575
0
LINE
8
0
10
50.65
20
-35.575
11
63.65
21
-35.575
0
LINE
8
0
10
50.15
20
-22.075
11
50.15
21
-35.075
0
LINE
8
0
10
64.15
20
-22.075
11
64.15
21
-35.075
0
ARC
8
0
10
50.65
20
-22.075
40
0.5
50
90
51
180
0
ARC
8
0
10
63.65
20
-22.075
40
0.5
50
0
51
90
0
ARC
8
0
10
50.65
20
-35.075
40
0.5
50
180
51
270
0
ARC
8
0
10
63.65
20
-35.075
40
0.5
50
270
51
0
0
LINE
8
0
10
69.7
20
-21.575
11
82.7
21
-21.575
0
LINE
8
0
10
69.7
20
-35.575
11
82.7
21
-35.575
0
LINE
8
0
10
69.2
20
-22.075
11
69.2
21
-35.075
0
LINE
8
0
10
83.2
20
-22.075
11
83.2
21
-35.075
0
ARC
8
0
10
69.7
20
-22.075
40
0.5
50
90
51
180
0
ARC
8
0
10
82.7
20
-22.075
40
0.5
50
0
51
90
0
ARC
8
0
10
69.7
20
-35.075
40
0.5
50
180
51
270
0
ARC
8
0
10
82.7
20
-35.075
40
0.5
50
270
51
0
0
LINE
8
0
10
88.75
20
-21.575
11
101.75
21
-21.575
0
LINE
8
0
10
88.75
20
-35.575
11
101.75
21
-35.575
0
LINE
8
0
10
88.25
20
-22.075
11
88.25
21
-35.075
0
LINE
8
0
10
102.25
20
-22.075
11
102.25
21
-35.075
0
ARC
8
0
10
88.75
20
-22.075
40
0.5
50
90
51
180
0
ARC
8
0
10
101.75
20
-22.075
40
0.5
50
0
51
90
0
ARC
8
0
10
88.75
20
-35.075
40
0.5
50
180
51
270
0
ARC
8
0
10
101.75
20
-35.075
40
0.5
50
270
51
0
0
LINE
8
0
10
107.8
20
-21.575
11
120.8
21
-21.575
0
LINE
8
0
10
107.8
20
-35.575
11
120.8
21
-35.575
0
LINE
8
0
10
107.3
20
-22.075
11
107.3
21
-35.075
0
LINE
8
0
10
121.3
20
-22.075
11
121.3
21
-35.075
0
ARC
8
0
10
107.8
20
-22.075
40
0.5
50
90
51
180
0
ARC
8
0
10
120.8
20
-22.075
40
0.5
50
0
51
90
0
ARC
8
0
10
107.8
20
-35.075
40
0.5
50
180
51
270
0
ARC
8
0
10
120.8
20
-35.075
40
0.5
50
270
51
0
0
LINE
8
0
10
126.85
20
-21.575
11
139.85
21
-21.575
0
LINE
8
0
10
126.85
20
-35.575
11
139.85
21
-35.575
0
LINE
8
0
10
126.35
20
-22.075
11
126.35
21
-35.075
0
LINE
8
0
10
140.35
20
-22.075
11
140.35
21
-35.075
0
ARC
8
0
10
126.85
20
-22.075
40
0.5
50
90
51
180
0
ARC
8
0
10
139.85
20
-22.075
40
0.5
50
0
51
90
0
ARC
8
0
10
126.85
20
-35.075
40
0.5
50
180
51
270
0
ARC
8
0
10
139.85
20
-35.075
40
0.5
50
270
51
0
0
LINE
8
0
10
145.9
20
-21.575
11
158.9
21
-21.575
0
LINE
8
0
10
145.9
20
-35.575
11
158.9
21
-35.575
0
LINE
8
0
10
145.4
20
-22.075
11
145.4
21
-35.075
0
LINE
8
0
10
159.4
20
-22.075
11
159.4
21
-35.075
0
ARC
8
0
10
145.9
20
-22.075
40
0.5
50
90
51
180
0
ARC
8
0
10
158.9
20
-22.075
40
0.5
50
0
51
90
0
ARC
8
0
10
145.9
20
-35.075
40
0.5
50
180
51
270
0
ARC
8
0
10
158.9
20
-35.075
40
0.5
50
270
51
0
0
LINE
8
0
10
164.95
20
-21.575
11
177.95
21
-21.575
0
LINE
8
0
10
164.95
20
-35.575
11
177.95
21
-35.575
0
LINE
8
0
10
164.45
20
-22.075
11
164.45
21
-35.075
0
LINE
8
0
10
178.45
20
-22.075
11
178.45
21
-35.075
0
ARC
8
0
10
164.95
20
-22.075
40
0.5
50
90
51
180
0
ARC
8
0
10
177.95
20
-22.075
40
0.5
50
0
51
90
0
ARC
8
0
10
164.95
20
-35.075
40
0.5
50
180
51
270
0
ARC
8
0
10
177.95
20
-35.075
40
0.5
50
270
51
0
0
LINE
8
0
10
184
20
-21.575
11
197
21
-21.575
0
LINE
8
0
10
184
20
-35.575
11
197
21
-35.575
0
LINE
8
0
10
183.5
20
-22.075
11
183.5
21
-35.075
0
LINE
8
0
10
197.5
20
-22.075
11
197.5
21
-35.075
0
ARC
8
0
10
184
20
-22.075
40
0.5
50
90
51
180
0
ARC
8
0
10
197
20
-22.075
40
0.5
50
0
51
90
0
ARC
8
0
10
184
20
-35.075
40
0.5
50
180
51
270
0
ARC
8
0
10
197
20
-35.075
40
0.5
50
270
51
0
0
LINE
8
0
10
203.05
20
-21.575
11
216.05
21
-21.575
0
LINE
8
0
10
203.05
20
-35.575
11
216.05
21
-35.575
0
LINE
8
0
10
202.55
20
-22.075
11
202.55
21
-35.075
0
LINE
8
0
10
216.55
20
-22.075
11
216.55
21
-35.075
0
ARC
8
0
10
203.05
20
-22.075
40
0.5
50
90
51
180
0
ARC
8
0
10
216.05
20
-22.075
40
0.5
50
0
51
90
0
ARC
8
0
10
203.05
20
-35.075
40
0.5
50
180
51
270
0
ARC
8
0
10
216.05
20
-35.075
40
0.5
50
270
51
0
0
LINE
8
0
10
222.1
20
-21.575
11
235.1
21
-21.575
0
LINE
8
0
10
222.1
20
-35.575
11
235.1
21
-35.575
0
LINE
8
0
10
221.6
20
-22.075
11
221.6
21
-35.075
0
LINE
8
0
10
235.6
20
-22.075
11
235.6
21
-35.075
0
ARC
8
0
10
222.1
20
-22.075
40
0.5
50
90
51
180
0
ARC
8
0
10
235.1
20
-22.075
40
0.5
50
0
51
90
0
ARC
8
0
10
222.1
20
-35.075
40
0.5
50
180
51
270
0
ARC
8
0
10
235.1
20
-35.075
40
0.5
50
270
51
0
0
LINE
8
0
10
241.15
20
-21.575
11
254.15
21
-21.575
0
LINE
8
0
10
241.15
20
-35.575
11
254.15
21
-35.575
0
LINE
8
0
10
240.65
20
-22.075
11
240.65
21
-35.075
0
LINE
8
0
10
254.65
20
-22.075
11
254.65
21
-35.075
0
ARC
8
0
10
241.15
20
-22.075
40
0.5
50
90
51
180
0
ARC
8
0
10
254.15
20
-22.075
40
0.5
50
0
51
90
0
ARC
8
0
10
241.15
20
-35.075
40
0.5
50
180
51
270
0
ARC
8
0
10
254.15
20
-35.075
40
0.5
50
270
51
0
0
LINE
8
0
10
260.2
20
-21.575
11
273.2
21
-21.575
0
LINE
8
0
10
260.2
20
-35.575
11
273.2
21
-35.575
0
LINE
8
0
10
259.7
20
-22.075
11
259.7
21
-35.075
0
LINE
8
0
10
273.7
20
-22.075
11
273.7
21
-35.075
0
ARC
8
0
10
260.2
20
-22.075
40
0.5
50
90
51
180
0
ARC
8
0
10
273.2
20
-22.075
40
0.5
50
0
51
90
0
ARC
8
0
10
260.2
20
-35.075
40
0.5
50
180
51
270
0
ARC
8
0
10
273.2
20
-35.075
40
0.5
50
270
51
0
0
LINE
8
0
10
282.1075
20
-21.575
11
295.1075
21
-21.575
0
LINE
8
0
10
282.1075
20
-35.575
11
295.1075
21
-35.575
0
LINE
8
0
10
281.6075
20
-22.075
11
281.6075
21
-35.075
0
LINE
8
0
10
295.6075
20
-22.075
11
295.6075
21
-35.075
0
ARC
8
0
10
282.1075
20
-22.075
40
0.5
50
90
51
180
0
ARC
8
0
10
295.1075
20
-22.075
40
0.5
50
0
51
90
0
ARC
8
0
10
282.1075
20
-35.075
40
0.5
50
180
51
270
0
ARC
8
0
10
295.1075
20
-35.075
40
0.5
50
270
51
0
0
LINE
8
0
10
301.1575
20
-21.575
11
314.1575
21
-21.575
0
LINE
8
0
10
301.1575
20
-35.575
11
314.1575
21
-35.575
0
LINE
8
0
10
300.6575
20
-22.075
11
300.6575
21
-35.075
0
LINE
8
0
10
314.6575
20
-22.075
11
314.6575
21
-35.075
0
ARC
8
0
10
301.1575
20
-22.075
40
0.5
50
90
51
180
0
ARC
8
0
10
314.1575
20
-22.075
40
0.5
50
0
51
90
0
ARC
8
0
10
301.1575
20
-35.075
40
0.5
50
180
51
270
0
ARC
8
0
10
314.1575
20
-35.075
40
0.5
50
270
51
0
0
LINE
8
0
10
320.2075
20
-21.575
11
333.2075
21
-21.575
0
LINE
8
0
10
320.2075
20
-35.575
11
333.2075
21
-35.575
0
LINE
8
0
10
319.7075
20
-22.075
11
319.7075
21
-35.075
0
LINE
8
0
10
333.7075
20
-22.075
11
333.7075
21
-35.075
0
ARC
8
0
10
320.2075
20
-22.075
40
0.5
50
90
51
180
0
ARC
8
0
10
333.2075
20
-22.075
40
0.5
50
0
51
90
0
ARC
8
0
10
320.2075
20
-35.075
40
0.5
50
180
51
270
0
ARC
8
0
10
333.2075
20
-35.075
40
0.5
50
270
51
0
0
LINE
8
0
10
7.7875
20
-40.625
11
20.7875
21
-40.625
0
LINE
8
0
10
7.7875
20
-54.625
11
20.7875
21
-54.625
0
LINE
8
0
10
7.2875
20
-41.125
11
7.2875
21
-54.125
0
LINE
8
0
10
21.2875
20
-41.125
11
21.2875
21
-54.125
0
ARC
8
0
10
7.7875
20
-41.125
40
0.5
50
90
51
180
0
ARC
8
0
10
20.7875
20
-41.125
40
0.5
50
0
51
90
0
ARC
8
0
10
7.7875
20
-54.125
40
0.5
50
180
51
270
0
ARC
8
0
10
20.7875
20
-54.125
40
0.5
50
270
51
0
0
LINE
8
0
10
31.6
20
-40.625
11
44.6
21
-40.625
0
LINE
8
0
10
31.6
20
-54.625
11
44.6
21
-54.625
0
LINE
8
0
10
31.1
20
-41.125
11
31.1
21
-54.125
0
LINE
8
0
10
45.1
20
-41.125
11
45.1
21
-54.125
0
ARC
8
0
10
31.6
20
-41.125
40
0.5
50
90
51
180
0
ARC
8
0
10
44.6
20
-41.125
40
0.5
50
0
51
90
0
ARC
8
0
10
31.6
20
-54.125
40
0.5
50
180
51
270
0
ARC
8
0
10
44.6
20
-54.125
40
0.5
50
270
51
0
0
LINE
8
0
10
50.65
20
-40.625
11
63.65
21
-40.625
0
LINE
8
0
10
50.65
20
-54.625
11
63.65
21
-54.625
0
LINE
8
0
10
50.15
20
-41.125
11
50.15
21
-54.125
0
LINE
8
0
10
64.15
20
-41.125
11
64.15
21
-54.125
0
ARC
8
0
10
50.65
20
-41.125
40
0.5
50
90
51
180
0
ARC
8
0
10
63.65
20
-41.125
40
0.5
50
0
51
90
0
ARC
8
0
10
50.65
20
-54.125
40
0.5
50
180
51
270
0
ARC
8
0
10
63.65
20
-54.125
40
0.5
50
270
51
0
0
LINE
8
0
10
69.7
20
-40.625
11
82.7
21
-40.625
0
LINE
8
0
10
69.7
20
-54.625
11
82.7
21
-54.625
0
LINE
8
0
10
69.2
20
-41.125
11
69.2
21
-54.125
0
LINE
8
0
10
83.2
20
-41.125
11
83.2
21
-54.125
0
ARC
8
0
10
69.7
20
-41.125
40
0.5
50
90
51
180
0
ARC
8
0
10
82.7
20
-41.125
40
0.5
50
0
51
90
0
ARC
8
0
10
69.7
20
-54.125
40
0.5
50
180
51
270
0
ARC
8
0
10
82.7
20
-54.125
40
0.5
50
270
51
0
0
LINE
8
0
10
88.75
20
-40.625
11
101.75
21
-40.625
0
LINE
8
0
10
88.75
20
-54.625
11
101.75
21
-54.625
0
LINE
8
0
10
88.25
20
-41.125
11
88.25
21
-54.125
0
LINE
8
0
10
102.25
20
-41.125
11
102.25
21
-54.125
0
ARC
8
0
10
88.75
20
-41.125
40
0.5
50
90
51
180
0
ARC
8
0
10
101.75
20
-41.125
40
0.5
50
0
51
90
0
ARC
8
0
10
88.75
20
-54.125
40
0.5
50
180
51
270
0
ARC
8
0
10
101.75
20
-54.125
40
0.5
50
270
51
0
0
LINE
8
0
10
107.8
20
-40.625
11
120.8
21
-40.625
0
LINE
8
0
10
107.8
20
-54.625
11
120.8
21
-54.625
0
LINE
8
0
10
107.3
20
-41.125
11
107.3
21
-54.125
0
LINE
8
0
10
121.3
20
-41.125
11
121.3
21
-54.125
0
ARC
8
0
10
107.8
20
-41.125
40
0.5
50
90
51
180
0
ARC
8
0
10
120.8
20
-41.125
40
0.5
50
0
51
90
0
ARC
8
0
10
107.8
20
-54.125
40
0.5
50
180
51
270
0
ARC
8
0
10
120.8
20
-54.125
40
0.5
50
270
51
0
0
LINE
8
0
10
126.85
20
-40.625
11
139.85
21
-40.625
0
LINE
8
0
10
126.85
20
-54.625
11
139.85
21
-54.625
0
LINE
8
0
10
126.35
20
-41.125
11
126.35
21
-54.125
0
LINE
8
0
10
140.35
20
-41.125
11
140.35
21
-54.125
0
ARC
8
0
10
126.85
20
-41.125
40
0.5
50
90
51
180
0
ARC
8
0
10
139.85
20
-41.125
40
0.5
50
0
51
90
0
ARC
8
0
10
126.85
20
-54.125
40
0.5
50
180
51
270
0
ARC
8
0
10
139.85
20
-54.125
40
0.5
50
270
51
0
0
LINE
8
0
10
145.9
20
-40.625
11
158.9
21
-40.625
0
LINE
8
0
10
145.9
20
-54.625
11
158.9
21
-54.625
0
LINE
8
0
10
145.4
20
-41.125
11
145.4
21
-54.125
0
LINE
8
0
10
159.4
20
-41.125
11
159.4
21
-54.125
0
ARC
8
0
10
145.9
20
-41.125
40
0.5
50
90
51
180
0
ARC
8
0
10
158.9
20
-41.125
40
0.5
50
0
51
90
0
ARC
8
0
10
145.9
20
-54.125
40
0.5
50
180
51
270
0
ARC
8
0
10
158.9
20
-54.125
40
0.5
50
270
51
0
0
LINE
8
0
10
164.95
20
-40.625
11
177.95
21
-40.625
0
LINE
8
0
10
164.95
20
-54.625
11
177.95
21
-54.625
0
LINE
8
0
10
164.45
20
-41.125
11
164.45
21
-54.125
0
LINE
8
0
10
178.45
20
-41.125
11
178.45
21
-54.125
0
ARC
8
0
10
164.95
20
-41.125
40
0.5
50
90
51
180
0
ARC
8
0
10
177.95
20
-41.125
40
0.5
50
0
51
90
0
ARC
8
0
10
164.95
20
-54.125
40
0.5
50
180
51
270
0
ARC
8
0
10
177.95
20
-54.125
40
0.5
50
270
51
0
0
LINE
8
0
10
184
20
-40.625
11
197
21
-40.625
0
LINE
8
0
10
184
20
-54.625
11
197
21
-54.625
0
LINE
8
0
10
183.5
20
-41.125
11
183.5
21
-54.125
0
LINE
8
0
10
197.5
20
-41.125
11
197.5
21
-54.125
0
ARC
8
0
10
184
20
-41.125
40
0.5
50
90
51
180
0
ARC
8
0
10
197
20
-41.125
40
0.5
50
0
51
90
0
ARC
8
0
10
184
20
-54.125
40
0.5
50
180
51
270
0
ARC
8
0
10
197
20
-54.125
40
0.5
50
270
51
0
0
LINE
8
0
10
203.05
20
-40.625
11
216.05
21
-40.625
0
LINE
8
0
10
203.05
20
-54.625
11
216.05
21
-54.625
0
LINE
8
0
10
202.55
20
-41.125
11
202.55
21
-54.125
0
LINE
8
0
10
216.55
20
-41.125
11
216.55
21
-54.125
0
ARC
8
0
10
203.05
20
-41.125
40
0.5
50
90
51
180
0
ARC
8
0
10
216.05
20
-41.125
40
0.5
50
0
51
90
0
ARC
8
0
10
203.05
20
-54.125
40
0.5
50
180
51
270
0
ARC
8
0
10
216.05
20
-54.125
40
0.5
50
270
51
0
0
LINE
8
0
10
222.1
20
-40.625
11
235.1
21
-40.625
0
LINE
8
0
10
222.1
20
-54.625
11
235.1
21
-54.625
0
LINE
8
0
10
221.6
20
-41.125
11
221.6
21
-54.125
0
LINE
8
0
10
235.6
20
-41.125
11
235.6
21
-54.125
0
ARC
8
0
10
222.1
20
-41.125
40
0.5
50
90
51
180
0
ARC
8
0
10
235.1
20
-41.125
40
0.5
50
0
51
90
0
ARC
8
0
10
222.1
20
-54.125
40
0.5
50
180
51
270
0
ARC
8
0
10
235.1
20
-54.125
40
0.5
50
270
51
0
0
LINE
8
0
10
241.15
20
-40.625
11
254.15
21
-40.625
0
LINE
8
0
10
241.15
20
-54.625
11
254.15
21
-54.625
0
LINE
8
0
10
240.65
20
-41.125
11
240.65
21
-54.125
0
LINE
8
0
10
254.65
20
-41.125
11
254.65
21
-54.125
0
ARC
8
0
10
241.15
20
-41.125
40
0.5
50
90
51
180
0
ARC
8
0
10
254.15
20
-41.125
40
0.5
50
0
51
90
0
ARC
8
0
10
241.15
20
-54.125
40
0.5
50
180
51
270
0
ARC
8
0
10
254.15
20
-54.125
40
0.5
50
270
51
0
0
LINE
8
0
10
260.2
20
-40.625
11
273.2
21
-40.625
0
LINE
8
0
10
260.2
20
-54.625
11
273.2
21
-54.625
0
LINE
8
0
10
259.7
20
-41.125
11
259.7
21
-54.125
0
LINE
8
0
10
273.7
20
-41.125
11
273.7
21
-54.125
0
ARC
8
0
10
260.2
20
-41.125
40
0.5
50
90
51
180
0
ARC
8
0
10
273.2
20
-41.125
40
0.5
50
0
51
90
0
ARC
8
0
10
260.2
20
-54.125
40
0.5
50
180
51
270
0
ARC
8
0
10
273.2
20
-54.125
40
0.5
50
270
51
0
0
LINE
8
0
10
282.1075
20
-40.625
11
295.1075
21
-40.625
0
LINE
8
0
10
282.1075
20
-54.625
11
295.1075
21
-54.625
0
LINE
8
0
10
281.6075
20
-41.125
11
281.6075
21
-54.125
0
LINE
8
0
10
295.6075
20
-41.125
11
295.6075
21
-54.125
0
ARC
8
0
10
282.1075
20
-41.125
40
0.5
50
90
51
180
0
ARC
8
0
10
295.1075
20
-41.125
40
0.5
50
0
51
90
0
ARC
8
0
10
282.1075
20
-54.125
40
0.5
50
180
51
270
0
ARC
8
0
10
295.1075
20
-54.125
40
0.5
50
270
51
0
0
LINE
8
0
10
301.1575
20
-40.625
11
314.1575
21
-40.625
0
LINE
8
0
10
301.1575
20
-54.625
11
314.1575
21
-54.625
0
LINE
8
0
10
300.6575
20
-41.125
11
300.6575
21
-54.125
0
LINE
8
0
10
314.6575
20
-41.125
11
314.6575
21
-54.125
0
ARC
8
0
10
301.1575
20
-41.125
40
0.5
50
90
51
180
0
ARC
8
0
10
314.1575
20
-41.125
40
0.5
50
0
51
90
0
ARC
8
0
10
301.1575
20
-54.125
40
0.5
50
180
51
270
0
ARC
8
0
10
314.1575
20
-54.125
40
0.5
50
270
51
0
0
LINE
8
0
10
320.2075
20
-40.625
11
333.2075
21
-40.625
0
LINE
8
0
10
320.2075
20
-54.625
11
333.2075
21
-54.625
0
LINE
8
0
10
319.7075
20
-41.125
11
319.7075
21
-54.125
0
LINE
8
0
10
333.7075
20
-41.125
11
333.7075
21
-54.125
0
ARC
8
0
10
320.2075
20
-41.125
40
0.5
50
90
51
180
0
ARC
8
0
10
333.2075
20
-41.125
40
0.5
50
0
51
90
0
ARC
8
0
10
320.2075
20
-54.125
40
0.5
50
180
51
270
0
ARC
8
0
10
333.2075
20
-54.125
40
0.5
50
270
51
0
0
LINE
8
0
10
7.7875
20
-59.675
11
20.7875
21
-59.675
0
LINE
8
0
10
7.7875
20
-73.675
11
20.7875
21
-73.675
0
LINE
8
0
10
7.2875
20
-60.175
11
7.2875
21
-73.175
0
LINE
8
0
10
21.2875
20
-60.175
11
21.2875
21
-73.175
0
ARC
8
0
10
7.7875
20
-60.175
40
0.5
50
90
51
180
0
ARC
8
0
10
20.7875
20
-60.175
40
0.5
50
0
51
90
0
ARC
8
0
10
7.7875
20
-73.175
40
0.5
50
180
51
270
0
ARC
8
0
10
20.7875
20
-73.175
40
0.5
50
270
51
0
0
LINE
8
0
10
31.6
20
-59.675
11
44.6
21
-59.675
0
LINE
8
0
10
31.6
20
-73.675
11
44.6
21
-73.675
0
LINE
8
0
10
31.1
20
-60.175
11
31.1
21
-73.175
0
LINE
8
0
10
45.1
20
-60.175
11
45.1
21
-73.175
0
ARC
8
0
10
31.6
20
-60.175
40
0.5
50
90
51
180
0
ARC
8
0
10
44.6
20
-60.175
40
0.5
50
0
51
90
0
ARC
8
0
10
31.6
20
-73.175
40
0.5
50
180
51
270
0
ARC
8
0
10
44.6
20
-73.175
40
0.5
50
270
51
0
0
LINE
8
0
10
50.65
20
-59.675
11
63.65
21
-59.675
0
LINE
8
0
10
50.65
20
-73.675
11
63.65
21
-73.675
0
LINE
8
0
10
50.15
20
-60.175
11
50.15
21
-73.175
0
LINE
8
0
10
64.15
20
-60.175
11
64.15
21
-73.175
0
ARC
8
0
10
50.65
20
-60.175
40
0.5
50
90
51
180
0
ARC
8
0
10
63.65
20
-60.175
40
0.5
50
0
51
90
0
ARC
8
0
10
50.65
20
-73.175
40
0.5
50
180
51
270
0
ARC
8
0
10
63.65
20
-73.175
40
0.5
50
270
51
0
0
LINE
8
0
10
69.7
20
-59.675
11
82.7
21
-59.675
0
LINE
8
0
10
69.7
20
-73.675
11
82.7
21
-73.675
0
LINE
8
0
10
69.2
20
-60.175
11
69.2
21
-73.175
0
LINE
8
0
10
83.2
20
-60.175
11
83.2
21
-73.175
0
ARC
8
0
10
69.7
20
-60.175
40
0.5
50
90
51
180
0
ARC
8
0
10
82.7
20
-60.175
40
0.5
50
0
51
90
0
ARC
8
0
10
69.7
20
-73.175
40
0.5
50
180
51
270
0
ARC
8
0
10
82.7
20
-73.175
40
0.5
50
270
51
0
0
LINE
8
0
10
88.75
20
-59.675
11
101.75
21
-59.675
0
LINE
8
0
10
88.75
20
-73.675
11
101.75
21
-73.675
0
LINE
8
0
10
88.25
20
-60.175
11
88.25
21
-73.175
0
LINE
8
0
10
102.25
20
-60.175
11
102.25
21
-73.175
0
ARC
8
0
10
88.75
20
-60.175
40
0.5
50
90
51
180
0
ARC
8
0
10
101.75
20
-60.175
40
0.5
50
0
51
90
0
ARC
8
0
10
88.75
20
-73.175
40
0.5
50
180
51
270
0
ARC
8
0
10
101.75
20
-73.175
40
0.5
50
270
51
0
0
LINE
8
0
10
107.8
20
-59.675
11
120.8
21
-59.675
0
LINE
8
0
10
107.8
20
-73.675
11
120.8
21
-73.675
0
LINE
8
0
10
107.3
20
-60.175
11
107.3
21
-73.175
0
LINE
8
0
10
121.3
20
-60.175
11
121.3
21
-73.175
0
ARC
8
0
10
107.8
20
-60.175
40
0.5
50
90
51
180
0
ARC
8
0
10
120.8
20
-60.175
40
0.5
50
0
51
90
0
ARC
8
0
10
107.8
20
-73.175
40
0.5
50
180
51
270
0
ARC
8
0
10
120.8
20
-73.175
40
0.5
50
270
51
0
0
LINE
8
0
10
126.85
20
-59.675
11
139.85
21
-59.675
0
LINE
8
0
10
126.85
20
-73.675
11
139.85
21
-73.675
0
LINE
8
0
10
126.35
20
-60.175
11
126.35
21
-73.175
0
LINE
8
0
10
140.35
20
-60.175
11
140.35
21
-73.175
0
ARC
8
0
10
126.85
20
-60.175
40
0.5
50
90
51
180
0
ARC
8
0
10
139.85
20
-60.175
40
0.5
50
0
51
90
0
ARC
8
0
10
126.85
20
-73.175
40
0.5
50
180
51
270
0
ARC
8
0
10
139.85
20
-73.175
40
0.5
50
270
51
0
0
LINE
8
0
10
145.9
20
-59.675
11
158.9
21
-59.675
0
LINE
8
0
10
145.9
20
-73.675
11
158.9
21
-73.675
0
LINE
8
0
10
145.4
20
-60.175
11
145.4
21
-73.175
0
LINE
8
0
10
159.4
20
-60.175
11
159.4
21
-73.175
0
ARC
8
0
10
145.9
20
-60.175
40
0.5
50
90
51
180
0
ARC
8
0
10
158.9
20
-60.175
40
0.5
50
0
51
90
0
ARC
8
0
10
145.9
20
-73.175
40
0.5
50
180
51
270
0
ARC
8
0
10
158.9
20
-73.175
40
0.5
50
270
51
0
0
LINE
8
0
10
164.95
20
-59.675
11
177.95
21
-59.675
0
LINE
8
0
10
164.95
20
-73.675
11
177.95
21
-73.675
0
LINE
8
0
10
164.45
20
-60.175
11
164.45
21
-73.175
0
LINE
8
0
10
178.45
20
-60.175
11
178.45
21
-73.175
0
ARC
8
0
10
164.95
20
-60.175
40
0.5
50
90
51
180
0
ARC
8
0
10
177.95
20
-60.175
40
0.5
50
0
51
90
0
ARC
8
0
10
164.95
20
-73.175
40
0.5
50
180
51
270
0
ARC
8
0
10
177.95
20
-73.175
40
0.5
50
270
51
0
0
LINE
8
0
10
184
20
-59.675
11
197
21
-59.675
0
LINE
8
0
10
184
20
-73.675
11
197
21
-73.675
0
LINE
8
0
10
183.5
20
-60.175
11
183.5
21
-73.175
0
LINE
8
0
10
197.5
20
-60.175
11
197.5
21
-73.175
0
ARC
8
0
10
184
20
-60.175
40
0.5
50
90
51
180
0
ARC
8
0
10
197
20
-60.175
40
0.5
50
0
51
90
0
ARC
8
0
10
184
20
-73.175
40
0.5
50
180
51
270
0
ARC
8
0
10
197
20
-73.175
40
0.5
50
270
51
0
0
LINE
8
0
10
203.05
20
-59.675
11
216.05
21
-59.675
0
LINE
8
0
10
203.05
20
-73.675
11
216.05
21
-73.675
0
LINE
8
0
10
202.55
20
-60.175
11
202.55
21
-73.175
0
LINE
8
0
10
216.55
20
-60.175
11
216.55
21
-73.175
0
ARC
8
0
10
203.05
20
-60.175
40
0.5
50
90
51
180
0
ARC
8
0
10
216.05
20
-60.175
40
0.5
50
0
51
90
0
ARC
8
0
10
203.05
20
-73.175
40
0.5
50
180
51
270
0
ARC
8
0
10
216.05
20
-73.175
40
0.5
50
270
51
0
0
LINE
8
0
10
222.1
20
-59.675
11
235.1
21
-59.675
0
LINE
8
0
10
222.1
20
-73.675
11
235.1
21
-73.675
0
LINE
8
0
10
221.6
20
-60.175
11
221.6
21
-73.175
0
LINE
8
0
10
235.6
20
-60.175
11
235.6
21
-73.175
0
ARC
8
0
10
222.1
20
-60.175
40
0.5
50
90
51
180
0
ARC
8
0
10
235.1
20
-60.175
40
0.5
50
0
51
90
0
ARC
8
0
10
222.1
20
-73.175
40
0.5
50
180
51
270
0
ARC
8
0
10
235.1
20
-73.175
40
0.5
50
270
51
0
0
LINE
8
0
10
250.675
20
-59.675
11
263.675
21
-59.675
0
LINE
8
0
10
250.675
20
-73.675
11
263.675
21
-73.675
0
LINE
8
0
10
250.175
20
-60.175
11
250.175
21
-73.175
0
LINE
8
0
10
264.175
20
-60.175
11
264.175
21
-73.175
0
ARC
8
0
10
250.675
20
-60.175
40
0.5
50
90
51
180
0
ARC
8
0
10
263.675
20
-60.175
40
0.5
50
0
51
90
0
ARC
8
0
10
250.675
20
-73.175
40
0.5
50
180
51
270
0
ARC
8
0
10
263.675
20
-73.175
40
0.5
50
270
51
0
0
LINE
8
0
10
242.237
20
-60.675
11
248.237
21
-60.675
0
LINE
8
0
10
242.237
20
-75.675
11
248.237
21
-75.675
0
LINE
8
0
10
241.737
20
-61.175
11
241.737
21
-75.175
0
LINE
8
0
10
248.737
20
-61.175
11
248.737
21
-75.175
0
ARC
8
0
10
242.237
20
-61.175
40
0.5
50
90
51
180
0
ARC
8
0
10
248.237
20
-61.175
40
0.5
50
0
51
90
0
ARC
8
0
10
242.237
20
-75.175
40
0.5
50
180
51
270
0
ARC
8
0
10
248.237
20
-75.175
40
0.5
50
270
51
0
0
LINE
8
0
10
266.113
20
-60.675
11
272.113
21
-60.675
0
LINE
8
0
10
266.113
20
-75.675
11
272.113
21
-75.675
0
LINE
8
0
10
265.613
20
-61.175
11
265.613
21
-75.175
0
LINE
8
0
10
272.613
20
-61.175
11
272.613
21
-75.175
0
ARC
8
0
10
266.113
20
-61.175
40
0.5
50
90
51
180
0
ARC
8
0
10
272.113
20
-61.175
40
0.5
50
0
51
90
0
ARC
8
0
10
266.113
20
-75.175
40
0.5
50
180
51
270
0
ARC
8
0
10
272.113
20
-75.175
40
0.5
50
270
51
0
0
LINE
8
0
10
282.1075
20
-59.675
11
295.1075
21
-59.675
0
LINE
8
0
10
282.1075
20
-73.675
11
295.1075
21
-73.675
0
LINE
8
0
10
281.6075
20
-60.175
11
281.6075
21
-73.175
0
LINE
8
0
10
295.6075
20
-60.175
11
295.6075
21
-73.175
0
ARC
8
0
10
282.1075
20
-60.175
40
0.5
50
90
51
180
0
ARC
8
0
10
295.1075
20
-60.175
40
0.5
50
0
51
90
0
ARC
8
0
10
282.1075
20
-73.175
40
0.5
50
180
51
270
0
ARC
8
0
10
295.1075
20
-73.175
40
0.5
50
270
51
0
0
LINE
8
0
10
301.1575
20
-59.675
11
314.1575
21
-59.675
0
LINE
8
0
10
301.1575
20
-73.675
11
314.1575
21
-73.675
0
LINE
8
0
10
300.6575
20
-60.175
11
300.6575
21
-73.175
0
LINE
8
0
10
314.6575
20
-60.175
11
314.6575
21
-73.175
0
ARC
8
0
10
301.1575
20
-60.175
40
0.5
50
90
51
180
0
ARC
8
0
10
314.1575
20
-60.175
40
0.5
50
0
51
90
0
ARC
8
0
10
301.1575
20
-73.175
40
0.5
50
180
51
270
0
ARC
8
0
10
314.1575
20
-73.175
40
0.5
50
270
51
0
0
LINE
8
0
10
320.2075
20
-59.675
11
333.2075
21
-59.675
0
LINE
8
0
10
320.2075
20
-73.675
11
333.2075
21
-73.675
0
LINE
8
0
10
319.7075
20
-60.175
11
319.7075
21
-73.175
0
LINE
8
0
10
333.7075
20
-60.175
11
333.7075
21
-73.175
0
ARC
8
0
10
320.2075
20
-60.175
40
0.5
50
90
51
180
0
ARC
8
0
10
333.2075
20
-60.175
40
0.5
50
0
51
90
0
ARC
8
0
10
320.2075
20
-73.175
40
0.5
50
180
51
270
0
ARC
8
0
10
333.2075
20
-73.175
40
0.5
50
270
51
0
0
LINE
8
0
10
7.7875
20
-78.725
11
20.7875
21
-78.725
0
LINE
8
0
10
7.7875
20
-92.725
11
20.7875
21
-92.725
0
LINE
8
0
10
7.2875
20
-79.225
11
7.2875
21
-92.225
0
LINE
8
0
10
21.2875
20
-79.225
11
21.2875
21
-92.225
0
ARC
8
0
10
7.7875
20
-79.225
40
0.5
50
90
51
180
0
ARC
8
0
10
20.7875
20
-79.225
40
0.5
50
0
51
90
0
ARC
8
0
10
7.7875
20
-92.225
40
0.5
50
180
51
270
0
ARC
8
0
10
20.7875
20
-92.225
40
0.5
50
270
51
0
0
LINE
8
0
10
31.6
20
-78.725
11
44.6
21
-78.725
0
LINE
8
0
10
31.6
20
-92.725
11
44.6
21
-92.725
0
LINE
8
0
10
31.1
20
-79.225
11
31.1
21
-92.225
0
LINE
8
0
10
45.1
20
-79.225
11
45.1
21
-92.225
0
ARC
8
0
10
31.6
20
-79.225
40
0.5
50
90
51
180
0
ARC
8
0
10
44.6
20
-79.225
40
0.5
50
0
51
90
0
ARC
8
0
10
31.6
20
-92.225
40
0.5
50
180
51
270
0
ARC
8
0
10
44.6
20
-92.225
40
0.5
50
270
51
0
0
LINE
8
0
10
50.65
20
-78.725
11
63.65
21
-78.725
0
LINE
8
0
10
50.65
20
-92.725
11
63.65
21
-92.725
0
LINE
8
0
10
50.15
20
-79.225
11
50.15
21
-92.225
0
LINE
8
0
10
64.15
20
-79.225
11
64.15
21
-92.225
0
ARC
8
0
10
50.65
20
-79.225
40
0.5
50
90
51
180
0
ARC
8
0
10
63.65
20
-79.225
40
0.5
50
0
51
90
0
ARC
8
0
10
50.65
20
-92.225
40
0.5
50
180
51
270
0
ARC
8
0
10
63.65
20
-92.225
40
0.5
50
270
51
0
0
LINE
8
0
10
69.7
20
-78.725
11
82.7
21
-78.725
0
LINE
8
0
10
69.7
20
-92.725
11
82.7
21
-92.725
0
LINE
8
0
10
69.2
20
-79.225
11
69.2
21
-92.225
0
LINE
8
0
10
83.2
20
-79.225
11
83.2
21
-92.225
0
ARC
8
0
10
69.7
20
-79.225
40
0.5
50
90
51
180
0
ARC
8
0
10
82.7
20
-79.225
40
0.5
50
0
51
90
0
ARC
8
0
10
69.7
20
-92.225
40
0.5
50
180
51
270
0
ARC
8
0
10
82.7
20
-92.225
40
0.5
50
270
51
0
0
LINE
8
0
10
88.75
20
-78.725
11
101.75
21
-78.725
0
LINE
8
0
10
88.75
20
-92.725
11
101.75
21
-92.725
0
LINE
8
0
10
88.25
20
-79.225
11
88.25
21
-92.225
0
LINE
8
0
10
102.25
20
-79.225
11
102.25
21
-92.225
0
ARC
8
0
10
88.75
20
-79.225
40
0.5
50
90
51
180
0
ARC
8
0
10
101.75
20
-79.225
40
0.5
50
0
51
90
0
ARC
8
0
10
88.75
20
-92.225
40
0.5
50
180
51
270
0
ARC
8
0
10
101.75
20
-92.225
40
0.5
50
270
51
0
0
LINE
8
0
10
107.8
20
-78.725
11
120.8
21
-78.725
0
LINE
8
0
10
107.8
20
-92.725
11
120.8
21
-92.725
0
LINE
8
0
10
107.3
20
-79.225
11
107.3
21
-92.225
0
LINE
8
0
10
121.3
20
-79.225
11
121.3
21
-92.225
0
ARC
8
0
10
107.8
20
-79.225
40
0.5
50
90
51
180
0
ARC
8
0
10
120.8
20
-79.225
40
0.5
50
0
51
90
0
ARC
8
0
10
107.8
20
-92.225
40
0.5
50
180
51
270
0
ARC
8
0
10
120.8
20
-92.225
40
0.5
50
270
51
0
0
LINE
8
0
10
126.85
20
-78.725
11
139.85
21
-78.725
0
LINE
8
0
10
126.85
20
-92.725
11
139.85
21
-92.725
0
LINE
8
0
10
126.35
20
-79.225
11
126.35
21
-92.225
0
LINE
8
0
10
140.35
20
-79.225
11
140.35
21
-92.225
0
ARC
8
0
10
126.85
20
-79.225
40
0.5
50
90
51
180
0
ARC
8
0
10
139.85
20
-79.225
40
0.5
50
0
51
90
0
ARC
8
0
10
126.85
20
-92.225
40
0.5
50
180
51
270
0
ARC
8
0
10
139.85
20
-92.225
40
0.5
50
270
51
0
0
LINE
8
0
10
145.9
20
-78.725
11
158.9
21
-78.725
0
LINE
8
0
10
145.9
20
-92.725
11
158.9
21
-92.725
0
LINE
8
0
10
145.4
20
-79.225
11
145.4
21
-92.225
0
LINE
8
0
10
159.4
20
-79.225
11
159.4
21
-92.225
0
ARC
8
0
10
145.9
20
-79.225
40
0.5
50
90
51
180
0
ARC
8
0
10
158.9
20
-79.225
40
0.5
50
0
51
90
0
ARC
8
0
10
145.9
20
-92.225
40
0.5
50
180
51
270
0
ARC
8
0
10
158.9
20
-92.225
40
0.5
50
270
51
0
0
LINE
8
0
10
164.95
20
-78.725
11
177.95
21
-78.725
0
LINE
8
0
10
164.95
20
-92.725
11
177.95
21
-92.725
0
LINE
8
0
10
164.45
20
-79.225
11
164.45
21
-92.225
0
LINE
8
0
10
178.45
20
-79.225
11
178.45
21
-92.225
0
ARC
8
0
10
164.95
20
-79.225
40
0.5
50
90
51
180
0
ARC
8
0
10
177.95
20
-79.225
40
0.5
50
0
51
90
0
ARC
8
0
10
164.95
20
-92.225
40
0.5
50
180
51
270
0
ARC
8
0
10
177.95
20
-92.225
40
0.5
50
270
51
0
0
LINE
8
0
10
184
20
-78.725
11
197
21
-78.725
0
LINE
8
0
10
184
20
-92.725
11
197
21
-92.725
0
LINE
8
0
10
183.5
20
-79.225
11
183.5
21
-92.225
0
LINE
8
0
10
197.5
20
-79.225
11
197.5
21
-92.225
0
ARC
8
0
10
184
20
-79.225
40
0.5
50
90
51
180
0
ARC
8
0
10
197
20
-79.225
40
0.5
50
0
51
90
0
ARC
8
0
10
184
20
-92.225
40
0.5
50
180
51
270
0
ARC
8
0
10
197
20
-92.225
40
0.5
50
270
51
0
0
LINE
8
0
10
203.05
20
-78.725
11
216.05
21
-78.725
0
LINE
8
0
10
203.05
20
-92.725
11
216.05
21
-92.725
0
LINE
8
0
10
202.55
20
-79.225
11
202.55
21
-92.225
0
LINE
8
0
10
216.55
20
-79.225
11
216.55
21
-92.225
0
ARC
8
0
10
203.05
20
-79.225
40
0.5
50
90
51
180
0
ARC
8
0
10
216.05
20
-79.225
40
0.5
50
0
51
90
0
ARC
8
0
10
203.05
20
-92.225
40
0.5
50
180
51
270
0
ARC
8
0
10
216.05
20
-92.225
40
0.5
50
270
51
0
0
LINE
8
0
10
241.15
20
-78.725
11
254.15
21
-78.725
0
LINE
8
0
10
241.15
20
-92.725
11
254.15
21
-92.725
0
LINE
8
0
10
240.65
20
-79.225
11
240.65
21
-92.225
0
LINE
8
0
10
254.65
20
-79.225
11
254.65
21
-92.225
0
ARC
8
0
10
241.15
20
-79.225
40
0.5
50
90
51
180
0
ARC
8
0
10
254.15
20
-79.225
40
0.5
50
0
51
90
0
ARC
8
0
10
241.15
20
-92.225
40
0.5
50
180
51
270
0
ARC
8
0
10
254.15
20
-92.225
40
0.5
50
270
51
0
0
LINE
8
0
10
225.6
20
-79.725
11
231.6
21
-79.725
0
LINE
8
0
10
225.6
20
-94.725
11
231.6
21
-94.725
0
LINE
8
0
10
225.1
20
-80.225
11
225.1
21
-94.225
0
LINE
8
0
10
232.1
20
-80.225
11
232.1
21
-94.225
0
ARC
8
0
10
225.6
20
-80.225
40
0.5
50
90
51
180
0
ARC
8
0
10
231.6
20
-80.225
40
0.5
50
0
51
90
0
ARC
8
0
10
225.6
20
-94.225
40
0.5
50
180
51
270
0
ARC
8
0
10
231.6
20
-94.225
40
0.5
50
270
51
0
0
LINE
8
0
10
263.7
20
-79.725
11
269.7
21
-79.725
0
LINE
8
0
10
263.7
20
-94.725
11
269.7
21
-94.725
0
LINE
8
0
10
263.2
20
-80.225
11
263.2
21
-94.225
0
LINE
8
0
10
270.2
20
-80.225
11
270.2
21
-94.225
0
ARC
8
0
10
263.7
20
-80.225
40
0.5
50
90
51
180
0
ARC
8
0
10
269.7
20
-80.225
40
0.5
50
0
51
90
0
ARC
8
0
10
263.7
20
-94.225
40
0.5
50
180
51
270
0
ARC
8
0
10
269.7
20
-94.225
40
0.5
50
270
51
0
0
LINE
8
0
10
301.1575
20
-78.725
11
314.1575
21
-78.725
0
LINE
8
0
10
301.1575
20
-92.725
11
314.1575
21
-92.725
0
LINE
8
0
10
300.6575
20
-79.225
11
300.6575
21
-92.225
0
LINE
8
0
10
314.6575
20
-79.225
11
314.6575
21
-92.225
0
ARC
8
0
10
301.1575
20
-79.225
40
0.5
50
90
51
180
0
ARC
8
0
10
314.1575
20
-79.225
40
0.5
50
0
51
90
0
ARC
8
0
10
301.1575
20
-92.225
40
0.5
50
180
51
270
0
ARC
8
0
10
314.1575
20
-92.225
40
0.5
50
270
51
0
0
LINE
8
0
10
7.7875
20
-97.775
11
20.7875
21
-97.775
0
LINE
8
0
10
7.7875
20
-111.775
11
20.7875
21
-111.775
0
LINE
8
0
10
7.2875
20
-98.275
11
7.2875
21
-111.275
0
LINE
8
0
10
21.2875
20
-98.275
11
21.2875
21
-111.275
0
ARC
8
0
10
7.7875
20
-98.275
40
0.5
50
90
51
180
0
ARC
8
0
10
20.7875
20
-98.275
40
0.5
50
0
51
90
0
ARC
8
0
10
7.7875
20
-111.275
40
0.5
50
180
51
270
0
ARC
8
0
10
20.7875
20
-111.275
40
0.5
50
270
51
0
0
LINE
8
0
10
31.6
20
-97.775
11
44.6
21
-97.775
0
LINE
8
0
10
31.6
20
-111.775
11
44.6
21
-111.775
0
LINE
8
0
10
31.1
20
-98.275
11
31.1
21
-111.275
0
LINE
8
0
10
45.1
20
-98.275
11
45.1
21
-111.275
0
ARC
8
0
10
31.6
20
-98.275
40
0.5
50
90
51
180
0
ARC
8
0
10
44.6
20
-98.275
40
0.5
50
0
51
90
0
ARC
8
0
10
31.6
20
-111.275
40
0.5
50
180
51
270
0
ARC
8
0
10
44.6
20
-111.275
40
0.5
50
270
51
0
0
LINE
8
0
10
50.65
20
-97.775
11
63.65
21
-97.775
0
LINE
8
0
10
50.65
20
-111.775
11
63.65
21
-111.775
0
LINE
8
0
10
50.15
20
-98.275
11
50.15
21
-111.275
0
LINE
8
0
10
64.15
20
-98.275
11
64.15
21
-111.275
0
ARC
8
0
10
50.65
20
-98.275
40
0.5
50
90
51
180
0
ARC
8
0
10
63.65
20
-98.275
40
0.5
50
0
51
90
0
ARC
8
0
10
50.65
20
-111.275
40
0.5
50
180
51
270
0
ARC
8
0
10
63.65
20
-111.275
40
0.5
50
270
51
0
0
LINE
8
0
10
88.75
20
-97.775
11
101.75
21
-97.775
0
LINE
8
0
10
88.75
20
-111.775
11
101.75
21
-111.775
0
LINE
8
0
10
88.25
20
-98.275
11
88.25
21
-111.275
0
LINE
8
0
10
102.25
20
-98.275
11
102.25
21
-111.275
0
ARC
8
0
10
88.75
20
-98.275
40
0.5
50
90
51
180
0
ARC
8
0
10
101.75
20
-98.275
40
0.5
50
0
51
90
0
ARC
8
0
10
88.75
20
-111.275
40
0.5
50
180
51
270
0
ARC
8
0
10
101.75
20
-111.275
40
0.5
50
270
51
0
0
LINE
8
0
10
73.2
20
-98.775
11
79.2
21
-98.775
0
LINE
8
0
10
73.2
20
-113.775
11
79.2
21
-113.775
0
LINE
8
0
10
72.7
20
-99.275
11
72.7
21
-113.275
0
LINE
8
0
10
79.7
20
-99.275
11
79.7
21
-113.275
0
ARC
8
0
10
73.2
20
-99.275
40
0.5
50
90
51
180
0
ARC
8
0
10
79.2
20
-99.275
40
0.5
50
0
51
90
0
ARC
8
0
10
73.2
20
-113.275
40
0.5
50
180
51
270
0
ARC
8
0
10
79.2
20
-113.275
40
0.5
50
270
51
0
0
LINE
8
0
10
111.3
20
-98.775
11
117.3
21
-98.775
0
LINE
8
0
10
111.3
20
-113.775
11
117.3
21
-113.775
0
LINE
8
0
10
110.8
20
-99.275
11
110.8
21
-113.275
0
LINE
8
0
10
117.8
20
-99.275
11
117.8
21
-113.275
0
ARC
8
0
10
111.3
20
-99.275
40
0.5
50
90
51
180
0
ARC
8
0
10
117.3
20
-99.275
40
0.5
50
0
51
90
0
ARC
8
0
10
111.3
20
-113.275
40
0.5
50
180
51
270
0
ARC
8
0
10
117.3
20
-113.275
40
0.5
50
270
51
0
0
LINE
8
0
10
145.9
20
-97.775
11
158.9
21
-97.775
0
LINE
8
0
10
145.9
20
-111.775
11
158.9
21
-111.775
0
LINE
8
0
10
145.4
20
-98.275
11
145.4
21
-111.275
0
LINE
8
0
10
159.4
20
-98.275
11
159.4
21
-111.275
0
ARC
8
0
10
145.9
20
-98.275
40
0.5
50
90
51
180
0
ARC
8
0
10
158.9
20
-98.275
40
0.5
50
0
51
90
0
ARC
8
0
10
145.9
20
-111.275
40
0.5
50
180
51
270
0
ARC
8
0
10
158.9
20
-111.275
40
0.5
50
270
51
0
0
LINE
8
0
10
130.35
20
-98.775
11
136.35
21
-98.775
0
LINE
8
0
10
130.35
20
-113.775
11
136.35
21
-113.775
0
LINE
8
0
10
129.85
20
-99.275
11
129.85
21
-113.275
0
LINE
8
0
10
136.85
20
-99.275
11
136.85
21
-113.275
0
ARC
8
0
10
130.35
20
-99.275
40
0.5
50
90
51
180
0
ARC
8
0
10
136.35
20
-99.275
40
0.5
50
0
51
90
0
ARC
8
0
10
130.35
20
-113.275
40
0.5
50
180
51
270
0
ARC
8
0
10
136.35
20
-113.275
40
0.5
50
270
51
0
0
LINE
8
0
10
168.45
20
-98.775
11
174.45
21
-98.775
0
LINE
8
0
10
168.45
20
-113.775
11
174.45
21
-113.775
0
LINE
8
0
10
167.95
20
-99.275
11
167.95
21
-113.275
0
LINE
8
0
10
174.95
20
-99.275
11
174.95
21
-113.275
0
ARC
8
0
10
168.45
20
-99.275
40
0.5
50
90
51
180
0
ARC
8
0
10
174.45
20
-99.275
40
0.5
50
0
51
90
0
ARC
8
0
10
168.45
20
-113.275
40
0.5
50
180
51
270
0
ARC
8
0
10
174.45
20
-113.275
40
0.5
50
270
51
0
0
LINE
8
0
10
184
20
-97.775
11
197
21
-97.775
0
LINE
8
0
10
184
20
-111.775
11
197
21
-111.775
0
LINE
8
0
10
183.5
20
-98.275
11
183.5
21
-111.275
0
LINE
8
0
10
197.5
20
-98.275
11
197.5
21
-111.275
0
ARC
8
0
10
184
20
-98.275
40
0.5
50
90
51
180
0
ARC
8
0
10
197
20
-98.275
40
0.5
50
0
51
90
0
ARC
8
0
10
184
20
-111.275
40
0.5
50
180
51
270
0
ARC
8
0
10
197
20
-111.275
40
0.5
50
270
51
0
0
LINE
8
0
10
203.05
20
-97.775
11
216.05
21
-97.775
0
LINE
8
0
10
203.05
20
-111.775
11
216.05
21
-111.775
0
LINE
8
0
10
202.55
20
-98.275
11
202.55
21
-111.275
0
LINE
8
0
10
216.55
20
-98.275
11
216.55
21
-111.275
0
ARC
8
0
10
203.05
20
-98.275
40
0.5
50
90
51
180
0
ARC
8
0
10
216.05
20
-98.275
40
0.5
50
0
51
90
0
ARC
8
0
10
203.05
20
-111.275
40
0.5
50
180
51
270
0
ARC
8
0
10
216.05
20
-111.275
40
0.5
50
270
51
0
0
LINE
8
0
10
222.1
20
-97.775
11
235.1
21
-97.775
0
LINE
8
0
10
222.1
20
-111.775
11
235.1
21
-111.775
0
LINE
8
0
10
221.6
20
-98.275
11
221.6
21
-111.275
0
LINE
8
0
10
235.6
20
-98.275
11
235.6
21
-111.275
0
ARC
8
0
10
222.1
20
-98.275
40
0.5
50
90
51
180
0
ARC
8
0
10
235.1
20
-98.275
40
0.5
50
0
51
90
0
ARC
8
0
10
222.1
20
-111.275
40
0.5
50
180
51
270
0
ARC
8
0
10
235.1
20
-111.275
40
0.5
50
270
51
0
0
LINE
8
0
10
250.675
20
-97.775
11
263.675
21
-97.775
0
LINE
8
0
10
250.675
20
-111.775
11
263.675
21
-111.775
0
LINE
8
0
10
250.175
20
-98.275
11
250.175
21
-111.275
0
LINE
8
0
10
264.175
20
-98.275
11
264.175
21
-111.275
0
ARC
8
0
10
250.675
20
-98.275
40
0.5
50
90
51
180
0
ARC
8
0
10
263.675
20
-98.275
40
0.5
50
0
51
90
0
ARC
8
0
10
250.675
20
-111.275
40
0.5
50
180
51
270
0
ARC
8
0
10
263.675
20
-111.275
40
0.5
50
270
51
0
0
LINE
8
0
10
242.237
20
-98.775
11
248.237
21
-98.775
0
LINE
8
0
10
242.237
20
-113.775
11
248.237
21
-113.775
0
LINE
8
0
10
241.737
20
-99.275
11
241.737
21
-113.275
0
LINE
8
0
10
248.737
20
-99.275
11
248.737
21
-113.275
0
ARC
8
0
10
242.237
20
-99.275
40
0.5
50
90
51
180
0
ARC
8
0
10
248.237
20
-99.275
40
0.5
50
0
51
90
0
ARC
8
0
10
242.237
20
-113.275
40
0.5
50
180
51
270
0
ARC
8
0
10
248.237
20
-113.275
40
0.5
50
270
51
0
0
LINE
8
0
10
266.113
20
-98.775
11
272.113
21
-98.775
0
LINE
8
0
10
266.113
20
-113.775
11
272.113
21
-113.775
0
LINE
8
0
10
265.613
20
-99.275
11
265.613
21
-113.275
0
LINE
8
0
10
272.613
20
-99.275
11
272.613
21
-113.275
0
ARC
8
0
10
266.113
20
-99.275
40
0.5
50
90
51
180
0
ARC
8
0
10
272.113
20
-99.275
40
0.5
50
0
51
90
0
ARC
8
0
10
266.113
20
-113.275
40
0.5
50
180
51
270
0
ARC
8
0
10
272.113
20
-113.275
40
0.5
50
270
51
0
0
LINE
8
0
10
282.1075
20
-97.775
11
295.1075
21
-97.775
0
LINE
8
0
10
282.1075
20
-111.775
11
295.1075
21
-111.775
0
LINE
8
0
10
281.6075
20
-98.275
11
281.6075
21
-111.275
0
LINE
8
0
10
295.6075
20
-98.275
11
295.6075
21
-111.275
0
ARC
8
0
10
282.1075
20
-98.275
40
0.5
50
90
51
180
0
ARC
8
0
10
295.1075
20
-98.275
40
0.5
50
0
51
90
0
ARC
8
0
10
282.1075
20
-111.275
40
0.5
50
180
51
270
0
ARC
8
0
10
295.1075
20
-111.275
40
0.5
50
270
51
0
0
LINE
8
0
10
301.1575
20
-97.775
11
314.1575
21
-97.775
0
LINE
8
0
10
301.1575
20
-111.775
11
314.1575
21
-111.775
0
LINE
8
0
10
300.6575
20
-98.275
11
300.6575
21
-111.275
0
LINE
8
0
10
314.6575
20
-98.275
11
314.6575
21
-111.275
0
ARC
8
0
10
301.1575
20
-98.275
40
0.5
50
90
51
180
0
ARC
8
0
10
314.1575
20
-98.275
40
0.5
50
0
51
90
0
ARC
8
0
10
301.1575
20
-111.275
40
0.5
50
180
51
270
0
ARC
8
0
10
314.1575
20
-111.275
40
0.5
50
270
51
0
0
LINE
8
0
10
320.2075
20
-97.775
11
333.2075
21
-97.775
0
LINE
8
0
10
320.2075
20
-111.775
11
333.2075
21
-111.775
0
LINE
8
0
10
319.7075
20
-98.275
11
319.7075
21
-111.275
0
LINE
8
0
10
333.7075
20
-98.275
11
333.7075
21
-111.275
0
ARC
8
0
10
320.2075
20
-98.275
40
0.5
50
90
51
180
0
ARC
8
0
10
333.2075
20
-98.275
40
0.5
50
0
51
90
0
ARC
8
0
10
320.2075
20
-111.275
40
0.5
50
180
51
270
0
ARC
8
0
10
333.2075
20
-111.275
40
0.5
50
270
51
0
0
LINE
8
0
10
0
20
-114.3
11
336.2325
21
-114.3
0
LINE
8
0
10
0
20
0
11
336.2325
21
0
0
LINE
8
0
10
0
20
-114.3
11
0
21
0
0
LINE
8
0
10
336.2325
20
-114.3
11
336.2325
21
0
0
ENDSEC
0
EOF