%TF.GenerationSoftware,KiCad,Pcbnew,8.0.6*%
%TF.CreationDate,2025-09-13T10:24:33-06:00*%
%TF.ProjectId,Toblerone,546f626c-6572-46f6-9e65-2e6b69636164,rev?*%
%TF.SameCoordinates,Original*%
%TF.FileFunction,Soldermask,Top*%
%TF.FilePolarity,Negative*%
%FSLAX46Y46*%
G04 Gerber Fmt 4.6, Leading zero omitted, Abs format (unit mm)*
G04 Created by KiCad (PCBNEW 8.0.6) date 2025-09-13 10:24:33*
%MOMM*%
%LPD*%
G01*
G04 APERTURE LIST*
G04 Aperture macros list*
%AMRoundRect*
0 Rectangle with rounded corners*
0 $1 Rounding radius*
0 $2 $3 $4 $5 $6 $7 $8 $9 X,Y pos of 4 corners*
0 Add a 4 corners polygon primitive as box body*
4,1,4,$2,$3,$4,$5,$6,$7,$8,$9,$2,$3,0*
0 Add four circle primitives for the rounded corners*
1,1,$1+$1,$2,$3*
1,1,$1+$1,$4,$5*
1,1,$1+$1,$6,$7*
1,1,$1+$1,$8,$9*
0 Add four rect primitives between the rounded corners*
20,1,$1+$1,$2,$3,$4,$5,0*
20,1,$1+$1,$4,$5,$6,$7,0*
20,1,$1+$1,$6,$7,$8,$9,0*
20,1,$1+$1,$8,$9,$2,$3,0*%
%AMRotRect*
0 Rectangle, with rotation*
0 The origin of the aperture is its center*
0 $1 length*
0 $2 width*
0 $3 Rotation angle, in degrees counterclockwise*
0 Add horizontal line*
21,1,$1,$2,0,0,$3*%
G04 Aperture macros list end*
%ADD10C,3.987800*%
%ADD11RoundRect,0.250000X0.475000X-0.250000X0.475000X0.250000X-0.475000X0.250000X-0.475000X-0.250000X0*%
%ADD12RoundRect,0.200000X0.200000X0.275000X-0.200000X0.275000X-0.200000X-0.275000X0.200000X-0.275000X0*%
%ADD13RoundRect,0.250000X-0.475000X0.250000X-0.475000X-0.250000X0.475000X-0.250000X0.475000X0.250000X0*%
%ADD14RotRect,1.400000X1.200000X55.000000*%
%ADD15RoundRect,0.200000X-0.200000X-0.275000X0.200000X-0.275000X0.200000X0.275000X-0.200000X0.275000X0*%
%ADD16R,1.800000X1.800000*%
%ADD17C,1.800000*%
%ADD18R,0.550000X1.500000*%
%ADD19R,1.500000X0.550000*%
%ADD20RoundRect,0.250000X0.250000X0.475000X-0.250000X0.475000X-0.250000X-0.475000X0.250000X-0.475000X0*%
%ADD21C,0.650000*%
%ADD22RoundRect,0.150000X0.150000X0.425000X-0.150000X0.425000X-0.150000X-0.425000X0.150000X-0.425000X0*%
%ADD23RoundRect,0.075000X0.075000X0.500000X-0.075000X0.500000X-0.075000X-0.500000X0.075000X-0.500000X0*%
%ADD24O,1.000000X2.100000*%
%ADD25O,1.000000X1.800000*%
%ADD26RoundRect,0.250000X-0.250000X-0.475000X0.250000X-0.475000X0.250000X0.475000X-0.250000X0.475000X0*%
%ADD27C,1.750000*%
%ADD28C,3.300000*%
%ADD29RoundRect,0.102000X-0.780000X0.780000X-0.780000X-0.780000X0.780000X-0.780000X0.780000X0.780000X0*%
%ADD30C,1.764000*%
G04 APERTURE END LIST*
D10*
%TO.C,S4*%
X278693750Y-173035000D03*
X302506250Y-173035000D03*
%TD*%
%TO.C,S5*%
X278678125Y-134955000D03*
X302490625Y-134955000D03*
%TD*%
%TO.C,S1*%
X262000000Y-153990000D03*
X300100000Y-153990000D03*
%TD*%
%TO.C,S3*%
X109609375Y-173036250D03*
X147709375Y-173036250D03*
%TD*%
%TO.C,S2*%
X166759375Y-173036250D03*
X204859375Y-173036250D03*
%TD*%
D11*
%TO.C,C4*%
X90550000Y-43900000D03*
X90550000Y-42000000D03*
%TD*%
D12*
%TO.C,R7*%
X103911875Y-41420000D03*
X102261875Y-41420000D03*
%TD*%
D13*
%TO.C,C2*%
X73000000Y-43000000D03*
X73000000Y-44900000D03*
%TD*%
D14*
%TO.C,Y1*%
X70774388Y-48859928D03*
X72036256Y-47057794D03*
X70725612Y-46140072D03*
X69463744Y-47942206D03*
%TD*%
D11*
%TO.C,C1*%
X73000000Y-51399999D03*
X73000000Y-49499999D03*
%TD*%
D15*
%TO.C,R2*%
X86866875Y-56568750D03*
X88516875Y-56568750D03*
%TD*%
D16*
%TO.C,D90*%
X104479375Y-45625000D03*
D17*
X101939375Y-45625000D03*
%TD*%
D12*
%TO.C,R4*%
X65200000Y-41200000D03*
X63550000Y-41200000D03*
%TD*%
D13*
%TO.C,C3*%
X90900000Y-51950000D03*
X90900000Y-53850000D03*
%TD*%
D18*
%TO.C,U1*%
X86596875Y-42181250D03*
X85796875Y-42181250D03*
X84996875Y-42181250D03*
X84196875Y-42181250D03*
X83396875Y-42181250D03*
X82596875Y-42181250D03*
X81796875Y-42181250D03*
X80996875Y-42181250D03*
X80196875Y-42181250D03*
X79396875Y-42181250D03*
X78596875Y-42181250D03*
D19*
X76896875Y-43881250D03*
X76896875Y-44681250D03*
X76896875Y-45481250D03*
X76896875Y-46281250D03*
X76896875Y-47081250D03*
X76896875Y-47881250D03*
X76896875Y-48681250D03*
X76896875Y-49481250D03*
X76896875Y-50281250D03*
X76896875Y-51081250D03*
X76896875Y-51881250D03*
D18*
X78596875Y-53581250D03*
X79396875Y-53581250D03*
X80196875Y-53581250D03*
X80996875Y-53581250D03*
X81796875Y-53581250D03*
X82596875Y-53581250D03*
X83396875Y-53581250D03*
X84196875Y-53581250D03*
X84996875Y-53581250D03*
X85796875Y-53581250D03*
X86596875Y-53581250D03*
D19*
X88296875Y-51881250D03*
X88296875Y-51081250D03*
X88296875Y-50281250D03*
X88296875Y-49481250D03*
X88296875Y-48681250D03*
X88296875Y-47881250D03*
X88296875Y-47081250D03*
X88296875Y-46281250D03*
X88296875Y-45481250D03*
X88296875Y-44681250D03*
X88296875Y-43881250D03*
%TD*%
D20*
%TO.C,C8*%
X82550000Y-38900000D03*
X80650000Y-38900000D03*
%TD*%
D21*
%TO.C,J3*%
X59140000Y-38605000D03*
X53360000Y-38605000D03*
D22*
X59450000Y-39680000D03*
X58650000Y-39680000D03*
D23*
X57500000Y-39680000D03*
X56500000Y-39680000D03*
X56000000Y-39680000D03*
X55000000Y-39680000D03*
D22*
X53850000Y-39680000D03*
X53050000Y-39680000D03*
X53050000Y-39680000D03*
X53850000Y-39680000D03*
D23*
X54500000Y-39680000D03*
X55500000Y-39680000D03*
X57000000Y-39680000D03*
X58000000Y-39680000D03*
D22*
X58650000Y-39680000D03*
X59450000Y-39680000D03*
D24*
X60570000Y-39105000D03*
D25*
X60570000Y-34925000D03*
D24*
X51930000Y-39105000D03*
D25*
X51930000Y-34925000D03*
%TD*%
D26*
%TO.C,C7*%
X85831250Y-39031250D03*
X87731250Y-39031250D03*
%TD*%
D12*
%TO.C,R3*%
X65200000Y-39700000D03*
X63550000Y-39700000D03*
%TD*%
D11*
%TO.C,C6*%
X74700000Y-40850000D03*
X74700000Y-38950000D03*
%TD*%
D20*
%TO.C,C5*%
X79250000Y-56100000D03*
X77350000Y-56100000D03*
%TD*%
D27*
%TO.C,K38*%
X171839375Y-107631250D03*
D10*
X166759375Y-107631250D03*
D27*
X161679375Y-107631250D03*
D28*
X162949375Y-105091250D03*
X169299375Y-102551250D03*
%TD*%
D27*
%TO.C,K43*%
X267089375Y-107631250D03*
D10*
X262009375Y-107631250D03*
D27*
X256929375Y-107631250D03*
D28*
X258199375Y-105091250D03*
X264549375Y-102551250D03*
%TD*%
D27*
%TO.C,K64*%
X365196875Y-126681250D03*
D10*
X360116875Y-126681250D03*
D27*
X355036875Y-126681250D03*
D28*
X356306875Y-124141250D03*
X362656875Y-121601250D03*
%TD*%
D27*
%TO.C,K74*%
X228989375Y-145731250D03*
D10*
X223909375Y-145731250D03*
D27*
X218829375Y-145731250D03*
D28*
X220099375Y-143191250D03*
X226449375Y-140651250D03*
%TD*%
D27*
%TO.C,K47*%
X346146875Y-107631250D03*
D10*
X341066875Y-107631250D03*
D27*
X335986875Y-107631250D03*
D28*
X337256875Y-105091250D03*
X343606875Y-102551250D03*
%TD*%
D27*
%TO.C,K23*%
X209939375Y-88581250D03*
D10*
X204859375Y-88581250D03*
D27*
X199779375Y-88581250D03*
D28*
X201049375Y-86041250D03*
X207399375Y-83501250D03*
%TD*%
D27*
%TO.C,K50*%
X76589375Y-126681250D03*
D10*
X71509375Y-126681250D03*
D27*
X66429375Y-126681250D03*
D28*
X67699375Y-124141250D03*
X74049375Y-121601250D03*
%TD*%
D27*
%TO.C,K32*%
X52776875Y-107631250D03*
D10*
X47696875Y-107631250D03*
D27*
X42616875Y-107631250D03*
D28*
X43886875Y-105091250D03*
X50236875Y-102551250D03*
%TD*%
D29*
%TO.C,J1*%
X357500000Y-141300000D03*
D30*
X357500000Y-143840000D03*
X357500000Y-146380000D03*
X357500000Y-148920000D03*
%TD*%
D27*
%TO.C,K68*%
X114689375Y-145731250D03*
D10*
X109609375Y-145731250D03*
D27*
X104529375Y-145731250D03*
D28*
X105799375Y-143191250D03*
X112149375Y-140651250D03*
%TD*%
D27*
%TO.C,K18*%
X114689375Y-88581250D03*
D10*
X109609375Y-88581250D03*
D27*
X104529375Y-88581250D03*
D28*
X105799375Y-86041250D03*
X112149375Y-83501250D03*
%TD*%
D27*
%TO.C,K85*%
X267089375Y-164781250D03*
D10*
X262009375Y-164781250D03*
D27*
X256929375Y-164781250D03*
D28*
X258199375Y-162241250D03*
X264549375Y-159701250D03*
%TD*%
D27*
%TO.C,K12*%
X267089375Y-69531250D03*
D10*
X262009375Y-69531250D03*
D27*
X256929375Y-69531250D03*
D28*
X258199375Y-66991250D03*
X264549375Y-64451250D03*
%TD*%
D27*
%TO.C,K80*%
X95639375Y-164781250D03*
D10*
X90559375Y-164781250D03*
D27*
X85479375Y-164781250D03*
D28*
X86749375Y-162241250D03*
X93099375Y-159701250D03*
%TD*%
D27*
%TO.C,K44*%
X286139375Y-107631250D03*
D10*
X281059375Y-107631250D03*
D27*
X275979375Y-107631250D03*
D28*
X277249375Y-105091250D03*
X283599375Y-102551250D03*
%TD*%
D27*
%TO.C,K24*%
X228989375Y-88581250D03*
D10*
X223909375Y-88581250D03*
D27*
X218829375Y-88581250D03*
D28*
X220099375Y-86041250D03*
X226449375Y-83501250D03*
%TD*%
D27*
%TO.C,K45*%
X305189375Y-107631250D03*
D10*
X300109375Y-107631250D03*
D27*
X295029375Y-107631250D03*
D28*
X296299375Y-105091250D03*
X302649375Y-102551250D03*
%TD*%
D27*
%TO.C,K62*%
X327096875Y-126681250D03*
D10*
X322016875Y-126681250D03*
D27*
X316936875Y-126681250D03*
D28*
X318206875Y-124141250D03*
X324556875Y-121601250D03*
%TD*%
D27*
%TO.C,K81*%
X133739375Y-164781250D03*
D10*
X128659375Y-164781250D03*
D27*
X123579375Y-164781250D03*
D28*
X124849375Y-162241250D03*
X131199375Y-159701250D03*
%TD*%
D27*
%TO.C,K79*%
X76589375Y-164781250D03*
D10*
X71509375Y-164781250D03*
D27*
X66429375Y-164781250D03*
D28*
X67699375Y-162241250D03*
X74049375Y-159701250D03*
%TD*%
D27*
%TO.C,K6*%
X152789375Y-69531250D03*
D10*
X147709375Y-69531250D03*
D27*
X142629375Y-69531250D03*
D28*
X143899375Y-66991250D03*
X150249375Y-64451250D03*
%TD*%
D27*
%TO.C,K33*%
X76589375Y-107631250D03*
D10*
X71509375Y-107631250D03*
D27*
X66429375Y-107631250D03*
D28*
X67699375Y-105091250D03*
X74049375Y-102551250D03*
%TD*%
D27*
%TO.C,K78*%
X52776875Y-164781250D03*
D10*
X47696875Y-164781250D03*
D27*
X42616875Y-164781250D03*
D28*
X43886875Y-162241250D03*
X50236875Y-159701250D03*
%TD*%
D27*
%TO.C,K61*%
X295664375Y-126681250D03*
D10*
X290584375Y-126681250D03*
D27*
X285504375Y-126681250D03*
D28*
X286774375Y-124141250D03*
X293124375Y-121601250D03*
%TD*%
D27*
%TO.C,K70*%
X152789375Y-145731250D03*
D10*
X147709375Y-145731250D03*
D27*
X142629375Y-145731250D03*
D28*
X143899375Y-143191250D03*
X150249375Y-140651250D03*
%TD*%
D27*
%TO.C,K31*%
X365196875Y-88581250D03*
D10*
X360116875Y-88581250D03*
D27*
X355036875Y-88581250D03*
D28*
X356306875Y-86041250D03*
X362656875Y-83501250D03*
%TD*%
D27*
%TO.C,K10*%
X228989375Y-69531250D03*
D10*
X223909375Y-69531250D03*
D27*
X218829375Y-69531250D03*
D28*
X220099375Y-66991250D03*
X226449375Y-64451250D03*
%TD*%
D27*
%TO.C,K42*%
X248039375Y-107631250D03*
D10*
X242959375Y-107631250D03*
D27*
X237879375Y-107631250D03*
D28*
X239149375Y-105091250D03*
X245499375Y-102551250D03*
%TD*%
D27*
%TO.C,K25*%
X248039375Y-88581250D03*
D10*
X242959375Y-88581250D03*
D27*
X237879375Y-88581250D03*
D28*
X239149375Y-86041250D03*
X245499375Y-83501250D03*
%TD*%
D27*
%TO.C,K59*%
X248039375Y-126681250D03*
D10*
X242959375Y-126681250D03*
D27*
X237879375Y-126681250D03*
D28*
X239149375Y-124141250D03*
X245499375Y-121601250D03*
%TD*%
D27*
%TO.C,K82*%
X190889375Y-164781250D03*
D10*
X185809375Y-164781250D03*
D27*
X180729375Y-164781250D03*
D28*
X181999375Y-162241250D03*
X188349375Y-159701250D03*
%TD*%
D27*
%TO.C,K89*%
X365196875Y-164781250D03*
D10*
X360116875Y-164781250D03*
D27*
X355036875Y-164781250D03*
D28*
X356306875Y-162241250D03*
X362656875Y-159701250D03*
%TD*%
D27*
%TO.C,K39*%
X190889375Y-107631250D03*
D10*
X185809375Y-107631250D03*
D27*
X180729375Y-107631250D03*
D28*
X181999375Y-105091250D03*
X188349375Y-102551250D03*
%TD*%
D27*
%TO.C,K88*%
X346146875Y-164781250D03*
D10*
X341066875Y-164781250D03*
D27*
X335986875Y-164781250D03*
D28*
X337256875Y-162241250D03*
X343606875Y-159701250D03*
%TD*%
D27*
%TO.C,K56*%
X190889375Y-126681250D03*
D10*
X185809375Y-126681250D03*
D27*
X180729375Y-126681250D03*
D28*
X181999375Y-124141250D03*
X188349375Y-121601250D03*
%TD*%
D27*
%TO.C,K26*%
X267089375Y-88581250D03*
D10*
X262009375Y-88581250D03*
D27*
X256929375Y-88581250D03*
D28*
X258199375Y-86041250D03*
X264549375Y-83501250D03*
%TD*%
D27*
%TO.C,K46*%
X327096875Y-107631250D03*
D10*
X322016875Y-107631250D03*
D27*
X316936875Y-107631250D03*
D28*
X318206875Y-105091250D03*
X324556875Y-102551250D03*
%TD*%
D27*
%TO.C,K20*%
X152789375Y-88581250D03*
D10*
X147709375Y-88581250D03*
D27*
X142629375Y-88581250D03*
D28*
X143899375Y-86041250D03*
X150249375Y-83501250D03*
%TD*%
D27*
%TO.C,K35*%
X114689375Y-107631250D03*
D10*
X109609375Y-107631250D03*
D27*
X104529375Y-107631250D03*
D28*
X105799375Y-105091250D03*
X112149375Y-102551250D03*
%TD*%
D27*
%TO.C,K28*%
X305189375Y-88581250D03*
D10*
X300109375Y-88581250D03*
D27*
X295029375Y-88581250D03*
D28*
X296299375Y-86041250D03*
X302649375Y-83501250D03*
%TD*%
D27*
%TO.C,K63*%
X346146875Y-126681250D03*
D10*
X341066875Y-126681250D03*
D27*
X335986875Y-126681250D03*
D28*
X337256875Y-124141250D03*
X343606875Y-121601250D03*
%TD*%
D27*
%TO.C,K21*%
X171839375Y-88581250D03*
D10*
X166759375Y-88581250D03*
D27*
X161679375Y-88581250D03*
D28*
X162949375Y-86041250D03*
X169299375Y-83501250D03*
%TD*%
D27*
%TO.C,K1*%
X48014375Y-69531250D03*
D10*
X42934375Y-69531250D03*
D27*
X37854375Y-69531250D03*
D28*
X39124375Y-66991250D03*
X45474375Y-64451250D03*
%TD*%
D27*
%TO.C,K55*%
X171839375Y-126681250D03*
D10*
X166759375Y-126681250D03*
D27*
X161679375Y-126681250D03*
D28*
X162949375Y-124141250D03*
X169299375Y-121601250D03*
%TD*%
D27*
%TO.C,K36*%
X133739375Y-107631250D03*
D10*
X128659375Y-107631250D03*
D27*
X123579375Y-107631250D03*
D28*
X124849375Y-105091250D03*
X131199375Y-102551250D03*
%TD*%
D27*
%TO.C,K15*%
X48014375Y-88581250D03*
D10*
X42934375Y-88581250D03*
D27*
X37854375Y-88581250D03*
D28*
X39124375Y-86041250D03*
X45474375Y-83501250D03*
%TD*%
D27*
%TO.C,K67*%
X95639375Y-145731250D03*
D10*
X90559375Y-145731250D03*
D27*
X85479375Y-145731250D03*
D28*
X86749375Y-143191250D03*
X93099375Y-140651250D03*
%TD*%
D27*
%TO.C,K34*%
X95639375Y-107631250D03*
D10*
X90559375Y-107631250D03*
D27*
X85479375Y-107631250D03*
D28*
X86749375Y-105091250D03*
X93099375Y-102551250D03*
%TD*%
D27*
%TO.C,K54*%
X152789375Y-126681250D03*
D10*
X147709375Y-126681250D03*
D27*
X142629375Y-126681250D03*
D28*
X143899375Y-124141250D03*
X150249375Y-121601250D03*
%TD*%
D27*
%TO.C,K5*%
X133739375Y-69531250D03*
D10*
X128659375Y-69531250D03*
D27*
X123579375Y-69531250D03*
D28*
X124849375Y-66991250D03*
X131199375Y-64451250D03*
%TD*%
D27*
%TO.C,K75*%
X248039375Y-145731250D03*
D10*
X242959375Y-145731250D03*
D27*
X237879375Y-145731250D03*
D28*
X239149375Y-143191250D03*
X245499375Y-140651250D03*
%TD*%
D27*
%TO.C,K72*%
X190889375Y-145731250D03*
D10*
X185809375Y-145731250D03*
D27*
X180729375Y-145731250D03*
D28*
X181999375Y-143191250D03*
X188349375Y-140651250D03*
%TD*%
D27*
%TO.C,K29*%
X327096875Y-88581250D03*
D10*
X322016875Y-88581250D03*
D27*
X316936875Y-88581250D03*
D28*
X318206875Y-86041250D03*
X324556875Y-83501250D03*
%TD*%
D27*
%TO.C,K53*%
X133739375Y-126681250D03*
D10*
X128659375Y-126681250D03*
D27*
X123579375Y-126681250D03*
D28*
X124849375Y-124141250D03*
X131199375Y-121601250D03*
%TD*%
D27*
%TO.C,K4*%
X114689375Y-69531250D03*
D10*
X109609375Y-69531250D03*
D27*
X104529375Y-69531250D03*
D28*
X105799375Y-66991250D03*
X112149375Y-64451250D03*
%TD*%
D27*
%TO.C,K83*%
X228989375Y-164781250D03*
D10*
X223909375Y-164781250D03*
D27*
X218829375Y-164781250D03*
D28*
X220099375Y-162241250D03*
X226449375Y-159701250D03*
%TD*%
D27*
%TO.C,K19*%
X133739375Y-88581250D03*
D10*
X128659375Y-88581250D03*
D27*
X123579375Y-88581250D03*
D28*
X124849375Y-86041250D03*
X131199375Y-83501250D03*
%TD*%
D27*
%TO.C,K2*%
X76589375Y-69531250D03*
D10*
X71509375Y-69531250D03*
D27*
X66429375Y-69531250D03*
D28*
X67699375Y-66991250D03*
X74049375Y-64451250D03*
%TD*%
D27*
%TO.C,K27*%
X286139375Y-88581250D03*
D10*
X281059375Y-88581250D03*
D27*
X275979375Y-88581250D03*
D28*
X277249375Y-86041250D03*
X283599375Y-83501250D03*
%TD*%
D27*
%TO.C,K87*%
X327096875Y-164781250D03*
D10*
X322016875Y-164781250D03*
D27*
X316936875Y-164781250D03*
D28*
X318206875Y-162241250D03*
X324556875Y-159701250D03*
%TD*%
D27*
%TO.C,K14*%
X305189375Y-69531250D03*
D10*
X300109375Y-69531250D03*
D27*
X295029375Y-69531250D03*
D28*
X296299375Y-66991250D03*
X302649375Y-64451250D03*
%TD*%
D27*
%TO.C,K49*%
X52776875Y-126681250D03*
D10*
X47696875Y-126681250D03*
D27*
X42616875Y-126681250D03*
D28*
X43886875Y-124141250D03*
X50236875Y-121601250D03*
%TD*%
D27*
%TO.C,K41*%
X228989375Y-107631250D03*
D10*
X223909375Y-107631250D03*
D27*
X218829375Y-107631250D03*
D28*
X220099375Y-105091250D03*
X226449375Y-102551250D03*
%TD*%
D27*
%TO.C,K71*%
X171839375Y-145731250D03*
D10*
X166759375Y-145731250D03*
D27*
X161679375Y-145731250D03*
D28*
X162949375Y-143191250D03*
X169299375Y-140651250D03*
%TD*%
D27*
%TO.C,K7*%
X171839375Y-69531250D03*
D10*
X166759375Y-69531250D03*
D27*
X161679375Y-69531250D03*
D28*
X162949375Y-66991250D03*
X169299375Y-64451250D03*
%TD*%
D27*
%TO.C,K69*%
X133739375Y-145731250D03*
D10*
X128659375Y-145731250D03*
D27*
X123579375Y-145731250D03*
D28*
X124849375Y-143191250D03*
X131199375Y-140651250D03*
%TD*%
D27*
%TO.C,K76*%
X286139375Y-145731250D03*
D10*
X281059375Y-145731250D03*
D27*
X275979375Y-145731250D03*
D28*
X277249375Y-143191250D03*
X283599375Y-140651250D03*
%TD*%
D27*
%TO.C,K84*%
X248039375Y-164781250D03*
D10*
X242959375Y-164781250D03*
D27*
X237879375Y-164781250D03*
D28*
X239149375Y-162241250D03*
X245499375Y-159701250D03*
%TD*%
D27*
%TO.C,K52*%
X114689375Y-126681250D03*
D10*
X109609375Y-126681250D03*
D27*
X104529375Y-126681250D03*
D28*
X105799375Y-124141250D03*
X112149375Y-121601250D03*
%TD*%
D27*
%TO.C,K40*%
X209939375Y-107631250D03*
D10*
X204859375Y-107631250D03*
D27*
X199779375Y-107631250D03*
D28*
X201049375Y-105091250D03*
X207399375Y-102551250D03*
%TD*%
D27*
%TO.C,K58*%
X228989375Y-126681250D03*
D10*
X223909375Y-126681250D03*
D27*
X218829375Y-126681250D03*
D28*
X220099375Y-124141250D03*
X226449375Y-121601250D03*
%TD*%
D27*
%TO.C,K51*%
X95639375Y-126681250D03*
D10*
X90559375Y-126681250D03*
D27*
X85479375Y-126681250D03*
D28*
X86749375Y-124141250D03*
X93099375Y-121601250D03*
%TD*%
D27*
%TO.C,K73*%
X209939375Y-145731250D03*
D10*
X204859375Y-145731250D03*
D27*
X199779375Y-145731250D03*
D28*
X201049375Y-143191250D03*
X207399375Y-140651250D03*
%TD*%
D27*
%TO.C,K60*%
X267089375Y-126681250D03*
D10*
X262009375Y-126681250D03*
D27*
X256929375Y-126681250D03*
D28*
X258199375Y-124141250D03*
X264549375Y-121601250D03*
%TD*%
D27*
%TO.C,K86*%
X295664375Y-164781250D03*
D10*
X290584375Y-164781250D03*
D27*
X285504375Y-164781250D03*
D28*
X286774375Y-162241250D03*
X293124375Y-159701250D03*
%TD*%
D27*
%TO.C,K65*%
X52776875Y-145731250D03*
D10*
X47696875Y-145731250D03*
D27*
X42616875Y-145731250D03*
D28*
X43886875Y-143191250D03*
X50236875Y-140651250D03*
%TD*%
D27*
%TO.C,K16*%
X76589375Y-88581250D03*
D10*
X71509375Y-88581250D03*
D27*
X66429375Y-88581250D03*
D28*
X67699375Y-86041250D03*
X74049375Y-83501250D03*
%TD*%
D27*
%TO.C,K22*%
X190889375Y-88581250D03*
D10*
X185809375Y-88581250D03*
D27*
X180729375Y-88581250D03*
D28*
X181999375Y-86041250D03*
X188349375Y-83501250D03*
%TD*%
D27*
%TO.C,K77*%
X346146875Y-145731250D03*
D10*
X341066875Y-145731250D03*
D27*
X335986875Y-145731250D03*
D28*
X337256875Y-143191250D03*
X343606875Y-140651250D03*
%TD*%
D27*
%TO.C,K66*%
X76589375Y-145731250D03*
D10*
X71509375Y-145731250D03*
D27*
X66429375Y-145731250D03*
D28*
X67699375Y-143191250D03*
X74049375Y-140651250D03*
%TD*%
D27*
%TO.C,K13*%
X286139375Y-69531250D03*
D10*
X281059375Y-69531250D03*
D27*
X275979375Y-69531250D03*
D28*
X277249375Y-66991250D03*
X283599375Y-64451250D03*
%TD*%
D27*
%TO.C,K8*%
X190889375Y-69531250D03*
D10*
X185809375Y-69531250D03*
D27*
X180729375Y-69531250D03*
D28*
X181999375Y-66991250D03*
X188349375Y-64451250D03*
%TD*%
D27*
%TO.C,K30*%
X346146875Y-88581250D03*
D10*
X341066875Y-88581250D03*
D27*
X335986875Y-88581250D03*
D28*
X337256875Y-86041250D03*
X343606875Y-83501250D03*
%TD*%
D27*
%TO.C,K11*%
X248039375Y-69531250D03*
D10*
X242959375Y-69531250D03*
D27*
X237879375Y-69531250D03*
D28*
X239149375Y-66991250D03*
X245499375Y-64451250D03*
%TD*%
D27*
%TO.C,K17*%
X95639375Y-88581250D03*
D10*
X90559375Y-88581250D03*
D27*
X85479375Y-88581250D03*
D28*
X86749375Y-86041250D03*
X93099375Y-83501250D03*
%TD*%
D27*
%TO.C,K48*%
X365196875Y-107631250D03*
D10*
X360116875Y-107631250D03*
D27*
X355036875Y-107631250D03*
D28*
X356306875Y-105091250D03*
X362656875Y-102551250D03*
%TD*%
D27*
%TO.C,K9*%
X209939375Y-69531250D03*
D10*
X204859375Y-69531250D03*
D27*
X199779375Y-69531250D03*
D28*
X201049375Y-66991250D03*
X207399375Y-64451250D03*
%TD*%
D27*
%TO.C,K57*%
X209939375Y-126681250D03*
D10*
X204859375Y-126681250D03*
D27*
X199779375Y-126681250D03*
D28*
X201049375Y-124141250D03*
X207399375Y-121601250D03*
%TD*%
D27*
%TO.C,K3*%
X95639375Y-69531250D03*
D10*
X90559375Y-69531250D03*
D27*
X85479375Y-69531250D03*
D28*
X86749375Y-66991250D03*
X93099375Y-64451250D03*
%TD*%
D27*
%TO.C,K37*%
X152789375Y-107631250D03*
D10*
X147709375Y-107631250D03*
D27*
X142629375Y-107631250D03*
D28*
X143899375Y-105091250D03*
X150249375Y-102551250D03*
%TD*%
M02*
