M48
; DRILL file {KiCad 8.0.6} date 2025-09-13T10:24:45-0600
; FORMAT={-:-/ absolute / inch / decimal}
; #@! TF.CreationDate,2025-09-13T10:24:45-06:00
; #@! TF.GenerationSoftware,Kicad,Pcbnew,8.0.6
; #@! TF.FileFunction,Plated,1,2,PTH
FMAT,2
INCH
; #@! TA.AperFunction,Plated,PTH,ViaDrill
T1C0.0118
; #@! TA.AperFunction,Plated,PTH,ComponentDrill
T2C0.0236
; #@! TA.AperFunction,Plated,PTH,ComponentDrill
T3C0.0354
; #@! TA.AperFunction,Plated,PTH,ComponentDrill
T4C0.0409
; #@! TA.AperFunction,Plated,PTH,ComponentDrill
T5C0.1181
; #@! TA.AperFunction,Plated,PTH,ComponentDrill
T6C0.1200
%
G90
G05
T1
X1.9016Y-1.6063
X2.0276Y-2.1752
X2.1555Y-2.3327
X2.3524Y-2.6181
X2.3524Y-3.2579
X2.3524Y-4.0551
X2.3524Y-4.7835
X2.3524Y-5.6102
X2.3524Y-6.3681
X2.8189Y-1.6929
X2.8189Y-2.0236
X2.9055Y-1.8504
X2.9409Y-1.4606
X2.9685Y-1.7598
X2.9947Y-2.2099
X2.9961Y-1.6339
X3.028Y-1.5913
X3.0595Y-1.5913
X3.0909Y-1.5883
X3.1024Y-1.8937
X3.1269Y-1.5909
X3.1286Y-2.2788
X3.1299Y-2.4528
X3.1583Y-1.589
X3.1594Y-4.5276
X3.1772Y-1.4724
X3.1791Y-2.4508
X3.1988Y-4.5276
X3.2087Y-2.4902
X3.2382Y-4.5276
X3.2677Y-1.998
X3.2833Y-1.7089
X3.2839Y-1.7587
X3.3169Y-1.998
X3.3563Y-2.1752
X3.3957Y-2.1752
X3.4055Y-1.5906
X3.4561Y-1.4804
X3.4941Y-2.4114
X3.5Y-2.1299
X3.5335Y-2.1949
X3.5335Y-2.4114
X3.5398Y-2.2311
X3.5531Y-1.998
X3.5827Y-2.2508
X3.6177Y-1.6529
X3.6535Y-2.126
X3.6811Y-2.4083
X3.6811Y-3.0315
X3.7008Y-2.298
X3.7033Y-2.1599
X3.7303Y-2.2744
X3.7347Y-2.1358
X3.7402Y-3.0315
X3.75Y-2.2441
X3.7598Y-2.1654
X3.7795Y-2.2244
X3.8091Y-2.2047
X3.9272Y-3.0315
X3.9764Y-1.6299
X12.0866Y-4.4882
X12.0866Y-4.6654
X12.3425Y-5.4134
T3
X4.0134Y-1.7963
X4.1134Y-1.7963
T4
X14.0748Y-5.563
X14.0748Y-5.663
X14.0748Y-5.763
X14.0748Y-5.863
T5
X1.5403Y-2.6375
X1.5403Y-3.3875
X1.7278Y-4.1375
X1.7278Y-4.8875
X1.7278Y-5.6375
X1.7278Y-6.3875
X1.7903Y-2.5375
X1.7903Y-3.2875
X1.9778Y-4.0375
X1.9778Y-4.7875
X1.9778Y-5.5375
X1.9778Y-6.2875
X2.6653Y-2.6375
X2.6653Y-3.3875
X2.6653Y-4.1375
X2.6653Y-4.8875
X2.6653Y-5.6375
X2.6653Y-6.3875
X2.9153Y-2.5375
X2.9153Y-3.2875
X2.9153Y-4.0375
X2.9153Y-4.7875
X2.9153Y-5.5375
X2.9153Y-6.2875
X3.4153Y-2.6375
X3.4153Y-3.3875
X3.4153Y-4.1375
X3.4153Y-4.8875
X3.4153Y-5.6375
X3.4153Y-6.3875
X3.6653Y-2.5375
X3.6653Y-3.2875
X3.6653Y-4.0375
X3.6653Y-4.7875
X3.6653Y-5.5375
X3.6653Y-6.2875
X4.1653Y-2.6375
X4.1653Y-3.3875
X4.1653Y-4.1375
X4.1653Y-4.8875
X4.1653Y-5.6375
X4.4153Y-2.5375
X4.4153Y-3.2875
X4.4153Y-4.0375
X4.4153Y-4.7875
X4.4153Y-5.5375
X4.9153Y-2.6375
X4.9153Y-3.3875
X4.9153Y-4.1375
X4.9153Y-4.8875
X4.9153Y-5.6375
X4.9153Y-6.3875
X5.1653Y-2.5375
X5.1653Y-3.2875
X5.1653Y-4.0375
X5.1653Y-4.7875
X5.1653Y-5.5375
X5.1653Y-6.2875
X5.6653Y-2.6375
X5.6653Y-3.3875
X5.6653Y-4.1375
X5.6653Y-4.8875
X5.6653Y-5.6375
X5.9153Y-2.5375
X5.9153Y-3.2875
X5.9153Y-4.0375
X5.9153Y-4.7875
X5.9153Y-5.5375
X6.4153Y-2.6375
X6.4153Y-3.3875
X6.4153Y-4.1375
X6.4153Y-4.8875
X6.4153Y-5.6375
X6.6653Y-2.5375
X6.6653Y-3.2875
X6.6653Y-4.0375
X6.6653Y-4.7875
X6.6653Y-5.5375
X7.1653Y-2.6375
X7.1653Y-3.3875
X7.1653Y-4.1375
X7.1653Y-4.8875
X7.1653Y-5.6375
X7.1653Y-6.3875
X7.4153Y-2.5375
X7.4153Y-3.2875
X7.4153Y-4.0375
X7.4153Y-4.7875
X7.4153Y-5.5375
X7.4153Y-6.2875
X7.9153Y-2.6375
X7.9153Y-3.3875
X7.9153Y-4.1375
X7.9153Y-4.8875
X7.9153Y-5.6375
X8.1653Y-2.5375
X8.1653Y-3.2875
X8.1653Y-4.0375
X8.1653Y-4.7875
X8.1653Y-5.5375
X8.6653Y-2.6375
X8.6653Y-3.3875
X8.6653Y-4.1375
X8.6653Y-4.8875
X8.6653Y-5.6375
X8.6653Y-6.3875
X8.9153Y-2.5375
X8.9153Y-3.2875
X8.9153Y-4.0375
X8.9153Y-4.7875
X8.9153Y-5.5375
X8.9153Y-6.2875
X9.4153Y-2.6375
X9.4153Y-3.3875
X9.4153Y-4.1375
X9.4153Y-4.8875
X9.4153Y-5.6375
X9.4153Y-6.3875
X9.6653Y-2.5375
X9.6653Y-3.2875
X9.6653Y-4.0375
X9.6653Y-4.7875
X9.6653Y-5.5375
X9.6653Y-6.2875
X10.1653Y-2.6375
X10.1653Y-3.3875
X10.1653Y-4.1375
X10.1653Y-4.8875
X10.1653Y-6.3875
X10.4153Y-2.5375
X10.4153Y-3.2875
X10.4153Y-4.0375
X10.4153Y-4.7875
X10.4153Y-6.2875
X10.9153Y-2.6375
X10.9153Y-3.3875
X10.9153Y-4.1375
X10.9153Y-5.6375
X11.1653Y-2.5375
X11.1653Y-3.2875
X11.1653Y-4.0375
X11.1653Y-5.5375
X11.2903Y-4.8875
X11.2903Y-6.3875
X11.5403Y-4.7875
X11.5403Y-6.2875
X11.6653Y-2.6375
X11.6653Y-3.3875
X11.6653Y-4.1375
X11.9153Y-2.5375
X11.9153Y-3.2875
X11.9153Y-4.0375
X12.5278Y-3.3875
X12.5278Y-4.1375
X12.5278Y-4.8875
X12.5278Y-6.3875
X12.7778Y-3.2875
X12.7778Y-4.0375
X12.7778Y-4.7875
X12.7778Y-6.2875
X13.2778Y-3.3875
X13.2778Y-4.1375
X13.2778Y-4.8875
X13.2778Y-5.6375
X13.2778Y-6.3875
X13.5278Y-3.2875
X13.5278Y-4.0375
X13.5278Y-4.7875
X13.5278Y-5.5375
X13.5278Y-6.2875
X14.0278Y-3.3875
X14.0278Y-4.1375
X14.0278Y-4.8875
X14.0278Y-6.3875
X14.2778Y-3.2875
X14.2778Y-4.0375
X14.2778Y-4.7875
X14.2778Y-6.2875
T6
X4.3153Y-6.2125
X5.8153Y-6.2125
X6.5653Y-6.2125
X8.0653Y-6.2125
X10.315Y-5.4626
X10.9716Y-4.7132
X10.9722Y-6.2124
X11.815Y-5.4626
X11.9091Y-4.7132
X11.9097Y-6.2124
T2
G00X2.0445Y-1.3907
M15
G01X2.0445Y-1.3593
M16
G05
G00X2.0445Y-1.5612
M15
G01X2.0445Y-1.5179
M16
G05
G00X2.3846Y-1.3907
M15
G01X2.3846Y-1.3593
M16
G05
G00X2.3846Y-1.5612
M15
G01X2.3846Y-1.5179
M16
G05
M30
