M48
; DRILL file {KiCad 8.0.6} date 2025-09-13T10:24:45-0600
; FORMAT={-:-/ absolute / inch / decimal}
; #@! TF.CreationDate,2025-09-13T10:24:45-06:00
; #@! TF.GenerationSoftware,Kicad,Pcbnew,8.0.6
; #@! TF.FileFunction,NonPlated,1,2,NPTH
FMAT,2
INCH
; #@! TA.AperFunction,NonPlated,NPTH,ComponentDrill
T1C0.0256
; #@! TA.AperFunction,NonPlated,NPTH,ComponentDrill
T2C0.0689
; #@! TA.AperFunction,NonPlated,NPTH,ComponentDrill
T3C0.1570
%
G90
G05
T1
X2.1008Y-1.5199
X2.3283Y-1.5199
T2
X1.4903Y-2.7375
X1.4903Y-3.4875
X1.6778Y-4.2375
X1.6778Y-4.9875
X1.6778Y-5.7375
X1.6778Y-6.4875
X1.8903Y-2.7375
X1.8903Y-3.4875
X2.0778Y-4.2375
X2.0778Y-4.9875
X2.0778Y-5.7375
X2.0778Y-6.4875
X2.6153Y-2.7375
X2.6153Y-3.4875
X2.6153Y-4.2375
X2.6153Y-4.9875
X2.6153Y-5.7375
X2.6153Y-6.4875
X3.0153Y-2.7375
X3.0153Y-3.4875
X3.0153Y-4.2375
X3.0153Y-4.9875
X3.0153Y-5.7375
X3.0153Y-6.4875
X3.3653Y-2.7375
X3.3653Y-3.4875
X3.3653Y-4.2375
X3.3653Y-4.9875
X3.3653Y-5.7375
X3.3653Y-6.4875
X3.7653Y-2.7375
X3.7653Y-3.4875
X3.7653Y-4.2375
X3.7653Y-4.9875
X3.7653Y-5.7375
X3.7653Y-6.4875
X4.1153Y-2.7375
X4.1153Y-3.4875
X4.1153Y-4.2375
X4.1153Y-4.9875
X4.1153Y-5.7375
X4.5153Y-2.7375
X4.5153Y-3.4875
X4.5153Y-4.2375
X4.5153Y-4.9875
X4.5153Y-5.7375
X4.8653Y-2.7375
X4.8653Y-3.4875
X4.8653Y-4.2375
X4.8653Y-4.9875
X4.8653Y-5.7375
X4.8653Y-6.4875
X5.2653Y-2.7375
X5.2653Y-3.4875
X5.2653Y-4.2375
X5.2653Y-4.9875
X5.2653Y-5.7375
X5.2653Y-6.4875
X5.6153Y-2.7375
X5.6153Y-3.4875
X5.6153Y-4.2375
X5.6153Y-4.9875
X5.6153Y-5.7375
X6.0153Y-2.7375
X6.0153Y-3.4875
X6.0153Y-4.2375
X6.0153Y-4.9875
X6.0153Y-5.7375
X6.3653Y-2.7375
X6.3653Y-3.4875
X6.3653Y-4.2375
X6.3653Y-4.9875
X6.3653Y-5.7375
X6.7653Y-2.7375
X6.7653Y-3.4875
X6.7653Y-4.2375
X6.7653Y-4.9875
X6.7653Y-5.7375
X7.1153Y-2.7375
X7.1153Y-3.4875
X7.1153Y-4.2375
X7.1153Y-4.9875
X7.1153Y-5.7375
X7.1153Y-6.4875
X7.5153Y-2.7375
X7.5153Y-3.4875
X7.5153Y-4.2375
X7.5153Y-4.9875
X7.5153Y-5.7375
X7.5153Y-6.4875
X7.8653Y-2.7375
X7.8653Y-3.4875
X7.8653Y-4.2375
X7.8653Y-4.9875
X7.8653Y-5.7375
X8.2653Y-2.7375
X8.2653Y-3.4875
X8.2653Y-4.2375
X8.2653Y-4.9875
X8.2653Y-5.7375
X8.6153Y-2.7375
X8.6153Y-3.4875
X8.6153Y-4.2375
X8.6153Y-4.9875
X8.6153Y-5.7375
X8.6153Y-6.4875
X9.0153Y-2.7375
X9.0153Y-3.4875
X9.0153Y-4.2375
X9.0153Y-4.9875
X9.0153Y-5.7375
X9.0153Y-6.4875
X9.3653Y-2.7375
X9.3653Y-3.4875
X9.3653Y-4.2375
X9.3653Y-4.9875
X9.3653Y-5.7375
X9.3653Y-6.4875
X9.7653Y-2.7375
X9.7653Y-3.4875
X9.7653Y-4.2375
X9.7653Y-4.9875
X9.7653Y-5.7375
X9.7653Y-6.4875
X10.1153Y-2.7375
X10.1153Y-3.4875
X10.1153Y-4.2375
X10.1153Y-4.9875
X10.1153Y-6.4875
X10.5153Y-2.7375
X10.5153Y-3.4875
X10.5153Y-4.2375
X10.5153Y-4.9875
X10.5153Y-6.4875
X10.8653Y-2.7375
X10.8653Y-3.4875
X10.8653Y-4.2375
X10.8653Y-5.7375
X11.2403Y-4.9875
X11.2403Y-6.4875
X11.2653Y-2.7375
X11.2653Y-3.4875
X11.2653Y-4.2375
X11.2653Y-5.7375
X11.6153Y-2.7375
X11.6153Y-3.4875
X11.6153Y-4.2375
X11.6403Y-4.9875
X11.6403Y-6.4875
X12.0153Y-2.7375
X12.0153Y-3.4875
X12.0153Y-4.2375
X12.4778Y-3.4875
X12.4778Y-4.2375
X12.4778Y-4.9875
X12.4778Y-6.4875
X12.8778Y-3.4875
X12.8778Y-4.2375
X12.8778Y-4.9875
X12.8778Y-6.4875
X13.2278Y-3.4875
X13.2278Y-4.2375
X13.2278Y-4.9875
X13.2278Y-5.7375
X13.2278Y-6.4875
X13.6278Y-3.4875
X13.6278Y-4.2375
X13.6278Y-4.9875
X13.6278Y-5.7375
X13.6278Y-6.4875
X13.9778Y-3.4875
X13.9778Y-4.2375
X13.9778Y-4.9875
X13.9778Y-6.4875
X14.3778Y-3.4875
X14.3778Y-4.2375
X14.3778Y-4.9875
X14.3778Y-6.4875
T3
X1.6903Y-2.7375
X1.6903Y-3.4875
X1.8778Y-4.2375
X1.8778Y-4.9875
X1.8778Y-5.7375
X1.8778Y-6.4875
X2.8153Y-2.7375
X2.8153Y-3.4875
X2.8153Y-4.2375
X2.8153Y-4.9875
X2.8153Y-5.7375
X2.8153Y-6.4875
X3.5653Y-2.7375
X3.5653Y-3.4875
X3.5653Y-4.2375
X3.5653Y-4.9875
X3.5653Y-5.7375
X3.5653Y-6.4875
X4.3153Y-2.7375
X4.3153Y-3.4875
X4.3153Y-4.2375
X4.3153Y-4.9875
X4.3153Y-5.7375
X4.3153Y-6.8125
X5.0653Y-2.7375
X5.0653Y-3.4875
X5.0653Y-4.2375
X5.0653Y-4.9875
X5.0653Y-5.7375
X5.0653Y-6.4875
X5.8153Y-2.7375
X5.8153Y-3.4875
X5.8153Y-4.2375
X5.8153Y-4.9875
X5.8153Y-5.7375
X5.8153Y-6.8125
X6.5653Y-2.7375
X6.5653Y-3.4875
X6.5653Y-4.2375
X6.5653Y-4.9875
X6.5653Y-5.7375
X6.5653Y-6.8125
X7.3153Y-2.7375
X7.3153Y-3.4875
X7.3153Y-4.2375
X7.3153Y-4.9875
X7.3153Y-5.7375
X7.3153Y-6.4875
X8.0653Y-2.7375
X8.0653Y-3.4875
X8.0653Y-4.2375
X8.0653Y-4.9875
X8.0653Y-5.7375
X8.0653Y-6.8125
X8.8153Y-2.7375
X8.8153Y-3.4875
X8.8153Y-4.2375
X8.8153Y-4.9875
X8.8153Y-5.7375
X8.8153Y-6.4875
X9.5653Y-2.7375
X9.5653Y-3.4875
X9.5653Y-4.2375
X9.5653Y-4.9875
X9.5653Y-5.7375
X9.5653Y-6.4875
X10.315Y-6.0626
X10.3153Y-2.7375
X10.3153Y-3.4875
X10.3153Y-4.2375
X10.3153Y-4.9875
X10.3153Y-6.4875
X10.9716Y-5.3132
X10.9722Y-6.8124
X11.0653Y-2.7375
X11.0653Y-3.4875
X11.0653Y-4.2375
X11.0653Y-5.7375
X11.4403Y-4.9875
X11.4403Y-6.4875
X11.815Y-6.0626
X11.8153Y-2.7375
X11.8153Y-3.4875
X11.8153Y-4.2375
X11.9091Y-5.3132
X11.9097Y-6.8124
X12.6778Y-3.4875
X12.6778Y-4.2375
X12.6778Y-4.9875
X12.6778Y-6.4875
X13.4278Y-3.4875
X13.4278Y-4.2375
X13.4278Y-4.9875
X13.4278Y-5.7375
X13.4278Y-6.4875
X14.1778Y-3.4875
X14.1778Y-4.2375
X14.1778Y-4.9875
X14.1778Y-6.4875
M30
