%TF.GenerationSoftware,KiCad,Pcbnew,8.0.6*%
%TF.CreationDate,2025-09-13T10:24:33-06:00*%
%TF.ProjectId,Toblerone,546f626c-6572-46f6-9e65-2e6b69636164,rev?*%
%TF.SameCoordinates,Original*%
%TF.FileFunction,Soldermask,Bot*%
%TF.FilePolarity,Negative*%
%FSLAX46Y46*%
G04 Gerber Fmt 4.6, Leading zero omitted, Abs format (unit mm)*
G04 Created by KiCad (PCBNEW 8.0.6) date 2025-09-13 10:24:33*
%MOMM*%
%LPD*%
G01*
G04 APERTURE LIST*
G04 Aperture macros list*
%AMRoundRect*
0 Rectangle with rounded corners*
0 $1 Rounding radius*
0 $2 $3 $4 $5 $6 $7 $8 $9 X,Y pos of 4 corners*
0 Add a 4 corners polygon primitive as box body*
4,1,4,$2,$3,$4,$5,$6,$7,$8,$9,$2,$3,0*
0 Add four circle primitives for the rounded corners*
1,1,$1+$1,$2,$3*
1,1,$1+$1,$4,$5*
1,1,$1+$1,$6,$7*
1,1,$1+$1,$8,$9*
0 Add four rect primitives between the rounded corners*
20,1,$1+$1,$2,$3,$4,$5,0*
20,1,$1+$1,$4,$5,$6,$7,0*
20,1,$1+$1,$6,$7,$8,$9,0*
20,1,$1+$1,$8,$9,$2,$3,0*%
%AMFreePoly0*
4,1,45,0.338890,0.919795,0.339244,0.919649,0.387242,0.878781,0.394649,0.864244,0.394795,0.863890,0.402500,0.825000,0.402500,-0.825000,0.394795,-0.863890,0.394649,-0.864244,0.353781,-0.912242,0.339244,-0.919649,0.338890,-0.919795,0.300000,-0.927500,-0.800000,-0.927500,-0.838890,-0.919795,-0.839244,-0.919649,-0.887242,-0.878781,-0.894649,-0.864244,-0.894795,-0.863890,-0.902500,-0.825000,
-0.902500,-0.250000,-0.894795,-0.211110,-0.894649,-0.210756,-0.853781,-0.162758,-0.839244,-0.155351,-0.838890,-0.155205,-0.800000,-0.147500,-0.402500,-0.147500,-0.402500,0.147500,-0.800000,0.147500,-0.838890,0.155205,-0.839244,0.155351,-0.887242,0.196219,-0.894649,0.210756,-0.894795,0.211110,-0.902500,0.250000,-0.902500,0.825000,-0.894795,0.863890,-0.894649,0.864244,-0.853781,0.912242,
-0.839244,0.919649,-0.838890,0.919795,-0.800000,0.927500,0.300000,0.927500,0.338890,0.919795,0.338890,0.919795,$1*%
%AMFreePoly1*
4,1,47,0.838890,0.919795,0.839244,0.919649,0.887242,0.878781,0.894649,0.864244,0.894795,0.863890,0.902500,0.825000,0.902500,0.250000,0.894795,0.211110,0.894649,0.210756,0.853781,0.162758,0.839244,0.155351,0.838890,0.155205,0.800000,0.147500,0.402500,0.147500,0.402500,-0.147500,0.800000,-0.147500,0.838890,-0.155205,0.839244,-0.155351,0.887242,-0.196219,0.894649,-0.210756,
0.894795,-0.211110,0.902500,-0.250000,0.902500,-0.825000,0.894795,-0.863890,0.894649,-0.864244,0.853781,-0.912242,0.839244,-0.919649,0.838890,-0.919795,0.800000,-0.927500,-0.290000,-0.927500,-0.292524,-0.927000,-0.300000,-0.927000,-0.311682,-0.923204,-0.328890,-0.919795,-0.329244,-0.919649,-0.333328,-0.916170,-0.359954,-0.907520,-0.397008,-0.856520,-0.402000,-0.825000,-0.402000,0.825000,
-0.382520,0.884954,-0.331520,0.922008,-0.300000,0.927000,-0.292524,0.927000,-0.290000,0.927500,0.800000,0.927500,0.838890,0.919795,0.838890,0.919795,$1*%
G04 Aperture macros list end*
%ADD10C,0.010000*%
%ADD11C,4.000000*%
%ADD12C,3.987800*%
%ADD13R,1.800000X1.800000*%
%ADD14C,1.800000*%
%ADD15C,0.650000*%
%ADD16O,1.000000X2.100000*%
%ADD17O,1.000000X1.800000*%
%ADD18C,1.750000*%
%ADD19C,3.300000*%
%ADD20RoundRect,0.250000X1.025000X1.000000X-1.025000X1.000000X-1.025000X-1.000000X1.025000X-1.000000X0*%
%ADD21RoundRect,0.250000X0.600000X-0.400000X0.600000X0.400000X-0.600000X0.400000X-0.600000X-0.400000X0*%
%ADD22RoundRect,0.102000X-0.780000X0.780000X-0.780000X-0.780000X0.780000X-0.780000X0.780000X0.780000X0*%
%ADD23C,1.764000*%
%ADD24R,1.800000X1.100000*%
%ADD25FreePoly0,90.000000*%
%ADD26FreePoly1,90.000000*%
%ADD27RoundRect,0.200000X-0.275000X0.200000X-0.275000X-0.200000X0.275000X-0.200000X0.275000X0.200000X0*%
G04 APERTURE END LIST*
D10*
%TO.C,D1*%
X49784375Y-71981250D02*
X49009375Y-71981250D01*
X49009375Y-71481250D01*
X49784375Y-71481250D01*
X49784375Y-71981250D01*
G36*
X49784375Y-71981250D02*
G01*
X49009375Y-71981250D01*
X49009375Y-71481250D01*
X49784375Y-71481250D01*
X49784375Y-71981250D01*
G37*
X49784375Y-74581250D02*
X49009375Y-74581250D01*
X49009375Y-74081250D01*
X49784375Y-74081250D01*
X49784375Y-74581250D01*
G36*
X49784375Y-74581250D02*
G01*
X49009375Y-74581250D01*
X49009375Y-74081250D01*
X49784375Y-74081250D01*
X49784375Y-74581250D01*
G37*
X50859375Y-71981250D02*
X50084375Y-71981250D01*
X50084375Y-71481250D01*
X50859375Y-71481250D01*
X50859375Y-71981250D01*
G36*
X50859375Y-71981250D02*
G01*
X50084375Y-71981250D01*
X50084375Y-71481250D01*
X50859375Y-71481250D01*
X50859375Y-71981250D01*
G37*
X50859375Y-74581250D02*
X50084375Y-74581250D01*
X50084375Y-74081250D01*
X50859375Y-74081250D01*
X50859375Y-74581250D01*
G36*
X50859375Y-74581250D02*
G01*
X50084375Y-74581250D01*
X50084375Y-74081250D01*
X50859375Y-74081250D01*
X50859375Y-74581250D01*
G37*
%TO.C,D2*%
X78359375Y-71981250D02*
X77584375Y-71981250D01*
X77584375Y-71481250D01*
X78359375Y-71481250D01*
X78359375Y-71981250D01*
G36*
X78359375Y-71981250D02*
G01*
X77584375Y-71981250D01*
X77584375Y-71481250D01*
X78359375Y-71481250D01*
X78359375Y-71981250D01*
G37*
X78359375Y-74581250D02*
X77584375Y-74581250D01*
X77584375Y-74081250D01*
X78359375Y-74081250D01*
X78359375Y-74581250D01*
G36*
X78359375Y-74581250D02*
G01*
X77584375Y-74581250D01*
X77584375Y-74081250D01*
X78359375Y-74081250D01*
X78359375Y-74581250D01*
G37*
X79434375Y-71981250D02*
X78659375Y-71981250D01*
X78659375Y-71481250D01*
X79434375Y-71481250D01*
X79434375Y-71981250D01*
G36*
X79434375Y-71981250D02*
G01*
X78659375Y-71981250D01*
X78659375Y-71481250D01*
X79434375Y-71481250D01*
X79434375Y-71981250D01*
G37*
X79434375Y-74581250D02*
X78659375Y-74581250D01*
X78659375Y-74081250D01*
X79434375Y-74081250D01*
X79434375Y-74581250D01*
G36*
X79434375Y-74581250D02*
G01*
X78659375Y-74581250D01*
X78659375Y-74081250D01*
X79434375Y-74081250D01*
X79434375Y-74581250D01*
G37*
%TD*%
D11*
%TO.C,S4*%
X278693750Y-157795000D03*
D12*
X278693750Y-173035000D03*
D11*
X302506250Y-157795000D03*
D12*
X302506250Y-173035000D03*
%TD*%
D11*
%TO.C,S5*%
X278678125Y-119715000D03*
D12*
X278678125Y-134955000D03*
D11*
X302490625Y-119715000D03*
D12*
X302490625Y-134955000D03*
%TD*%
D11*
%TO.C,S1*%
X262000000Y-138750000D03*
D12*
X262000000Y-153990000D03*
D11*
X300100000Y-138750000D03*
D12*
X300100000Y-153990000D03*
%TD*%
D11*
%TO.C,S3*%
X109609375Y-157796250D03*
D12*
X109609375Y-173036250D03*
D11*
X147709375Y-157796250D03*
D12*
X147709375Y-173036250D03*
%TD*%
D11*
%TO.C,S2*%
X166759375Y-157796250D03*
D12*
X166759375Y-173036250D03*
D11*
X204859375Y-157796250D03*
D12*
X204859375Y-173036250D03*
%TD*%
D13*
%TO.C,D90*%
X104479375Y-45625000D03*
D14*
X101939375Y-45625000D03*
%TD*%
D15*
%TO.C,J3*%
X59140000Y-38605000D03*
X53360000Y-38605000D03*
D16*
X60570000Y-39105000D03*
D17*
X60570000Y-34925000D03*
D16*
X51930000Y-39105000D03*
D17*
X51930000Y-34925000D03*
%TD*%
D18*
%TO.C,K38*%
X171839375Y-107631250D03*
D12*
X166759375Y-107631250D03*
D18*
X161679375Y-107631250D03*
D19*
X162949375Y-105091250D03*
D20*
X159399375Y-105091250D03*
X172849375Y-102551250D03*
D19*
X169299375Y-102551250D03*
%TD*%
D18*
%TO.C,K43*%
X267089375Y-107631250D03*
D12*
X262009375Y-107631250D03*
D18*
X256929375Y-107631250D03*
D19*
X258199375Y-105091250D03*
D20*
X254649375Y-105091250D03*
X268099375Y-102551250D03*
D19*
X264549375Y-102551250D03*
%TD*%
D18*
%TO.C,K64*%
X365196875Y-126681250D03*
D12*
X360116875Y-126681250D03*
D18*
X355036875Y-126681250D03*
D19*
X356306875Y-124141250D03*
D20*
X352756875Y-124141250D03*
X366206875Y-121601250D03*
D19*
X362656875Y-121601250D03*
%TD*%
D21*
%TO.C,D29*%
X329016875Y-94500000D03*
X329016875Y-91000000D03*
%TD*%
D18*
%TO.C,K74*%
X228989375Y-145731250D03*
D12*
X223909375Y-145731250D03*
D18*
X218829375Y-145731250D03*
D19*
X220099375Y-143191250D03*
D20*
X216549375Y-143191250D03*
X229999375Y-140651250D03*
D19*
X226449375Y-140651250D03*
%TD*%
D21*
%TO.C,D24*%
X230909375Y-93831250D03*
X230909375Y-90331250D03*
%TD*%
D18*
%TO.C,K47*%
X346146875Y-107631250D03*
D12*
X341066875Y-107631250D03*
D18*
X335986875Y-107631250D03*
D19*
X337256875Y-105091250D03*
D20*
X333706875Y-105091250D03*
X347156875Y-102551250D03*
D19*
X343606875Y-102551250D03*
%TD*%
D18*
%TO.C,K23*%
X209939375Y-88581250D03*
D12*
X204859375Y-88581250D03*
D18*
X199779375Y-88581250D03*
D19*
X201049375Y-86041250D03*
D20*
X197499375Y-86041250D03*
X210949375Y-83501250D03*
D19*
X207399375Y-83501250D03*
%TD*%
D18*
%TO.C,K50*%
X76589375Y-126681250D03*
D12*
X71509375Y-126681250D03*
D18*
X66429375Y-126681250D03*
D19*
X67699375Y-124141250D03*
D20*
X64149375Y-124141250D03*
X77599375Y-121601250D03*
D19*
X74049375Y-121601250D03*
%TD*%
D18*
%TO.C,K32*%
X52776875Y-107631250D03*
D12*
X47696875Y-107631250D03*
D18*
X42616875Y-107631250D03*
D19*
X43886875Y-105091250D03*
D20*
X40336875Y-105091250D03*
X53786875Y-102551250D03*
D19*
X50236875Y-102551250D03*
%TD*%
D22*
%TO.C,J1*%
X357500000Y-141300000D03*
D23*
X357500000Y-143840000D03*
X357500000Y-146380000D03*
X357500000Y-148920000D03*
%TD*%
D18*
%TO.C,K68*%
X114689375Y-145731250D03*
D12*
X109609375Y-145731250D03*
D18*
X104529375Y-145731250D03*
D19*
X105799375Y-143191250D03*
D20*
X102249375Y-143191250D03*
X115699375Y-140651250D03*
D19*
X112149375Y-140651250D03*
%TD*%
D21*
%TO.C,D40*%
X211859375Y-112881250D03*
X211859375Y-109381250D03*
%TD*%
%TO.C,D64*%
X367116875Y-131931250D03*
X367116875Y-128431250D03*
%TD*%
%TO.C,D23*%
X211859375Y-93831250D03*
X211859375Y-90331250D03*
%TD*%
D18*
%TO.C,K18*%
X114689375Y-88581250D03*
D12*
X109609375Y-88581250D03*
D18*
X104529375Y-88581250D03*
D19*
X105799375Y-86041250D03*
D20*
X102249375Y-86041250D03*
X115699375Y-83501250D03*
D19*
X112149375Y-83501250D03*
%TD*%
D21*
%TO.C,D10*%
X230909375Y-74781250D03*
X230909375Y-71281250D03*
%TD*%
%TO.C,D12*%
X269009375Y-74781250D03*
X269009375Y-71281250D03*
%TD*%
%TO.C,D9*%
X211859375Y-74781250D03*
X211859375Y-71281250D03*
%TD*%
%TO.C,D71*%
X173759375Y-150981250D03*
X173759375Y-147481250D03*
%TD*%
%TO.C,D83*%
X230909375Y-170031250D03*
X230909375Y-166531250D03*
%TD*%
%TO.C,D36*%
X135659375Y-112881250D03*
X135659375Y-109381250D03*
%TD*%
D18*
%TO.C,K85*%
X267089375Y-164781250D03*
D12*
X262009375Y-164781250D03*
D18*
X256929375Y-164781250D03*
D19*
X258199375Y-162241250D03*
D20*
X254649375Y-162241250D03*
X268099375Y-159701250D03*
D19*
X264549375Y-159701250D03*
%TD*%
D18*
%TO.C,K12*%
X267089375Y-69531250D03*
D12*
X262009375Y-69531250D03*
D18*
X256929375Y-69531250D03*
D19*
X258199375Y-66991250D03*
D20*
X254649375Y-66991250D03*
X268099375Y-64451250D03*
D19*
X264549375Y-64451250D03*
%TD*%
D21*
%TO.C,D14*%
X307109375Y-74781250D03*
X307109375Y-71281250D03*
%TD*%
D18*
%TO.C,K80*%
X95639375Y-164781250D03*
D12*
X90559375Y-164781250D03*
D18*
X85479375Y-164781250D03*
D19*
X86749375Y-162241250D03*
D20*
X83199375Y-162241250D03*
X96649375Y-159701250D03*
D19*
X93099375Y-159701250D03*
%TD*%
D21*
%TO.C,D70*%
X154709375Y-150981250D03*
X154709375Y-147481250D03*
%TD*%
%TO.C,D21*%
X173759375Y-93831250D03*
X173759375Y-90331250D03*
%TD*%
%TO.C,D73*%
X211859375Y-150981250D03*
X211859375Y-147481250D03*
%TD*%
D18*
%TO.C,K44*%
X286139375Y-107631250D03*
D12*
X281059375Y-107631250D03*
D18*
X275979375Y-107631250D03*
D19*
X277249375Y-105091250D03*
D20*
X273699375Y-105091250D03*
X287149375Y-102551250D03*
D19*
X283599375Y-102551250D03*
%TD*%
D18*
%TO.C,K24*%
X228989375Y-88581250D03*
D12*
X223909375Y-88581250D03*
D18*
X218829375Y-88581250D03*
D19*
X220099375Y-86041250D03*
D20*
X216549375Y-86041250D03*
X229999375Y-83501250D03*
D19*
X226449375Y-83501250D03*
%TD*%
D21*
%TO.C,D50*%
X78509375Y-131931250D03*
X78509375Y-128431250D03*
%TD*%
%TO.C,D72*%
X192809375Y-150981250D03*
X192809375Y-147481250D03*
%TD*%
D18*
%TO.C,K45*%
X305189375Y-107631250D03*
D12*
X300109375Y-107631250D03*
D18*
X295029375Y-107631250D03*
D19*
X296299375Y-105091250D03*
D20*
X292749375Y-105091250D03*
X306199375Y-102551250D03*
D19*
X302649375Y-102551250D03*
%TD*%
D18*
%TO.C,K62*%
X327096875Y-126681250D03*
D12*
X322016875Y-126681250D03*
D18*
X316936875Y-126681250D03*
D19*
X318206875Y-124141250D03*
D20*
X314656875Y-124141250D03*
X328106875Y-121601250D03*
D19*
X324556875Y-121601250D03*
%TD*%
D21*
%TO.C,D3*%
X97559375Y-74781250D03*
X97559375Y-71281250D03*
%TD*%
%TO.C,D79*%
X78509375Y-170031250D03*
X78509375Y-166531250D03*
%TD*%
D18*
%TO.C,K81*%
X133739375Y-164781250D03*
D12*
X128659375Y-164781250D03*
D18*
X123579375Y-164781250D03*
D19*
X124849375Y-162241250D03*
D20*
X121299375Y-162241250D03*
X134749375Y-159701250D03*
D19*
X131199375Y-159701250D03*
%TD*%
D24*
%TO.C,SW1*%
X38996875Y-58481250D03*
X45196875Y-58481250D03*
X38996875Y-54781250D03*
X45196875Y-54781250D03*
%TD*%
D21*
%TO.C,D44*%
X288059375Y-112881250D03*
X288059375Y-109381250D03*
%TD*%
D18*
%TO.C,K79*%
X76589375Y-164781250D03*
D12*
X71509375Y-164781250D03*
D18*
X66429375Y-164781250D03*
D19*
X67699375Y-162241250D03*
D20*
X64149375Y-162241250D03*
X77599375Y-159701250D03*
D19*
X74049375Y-159701250D03*
%TD*%
D18*
%TO.C,K6*%
X152789375Y-69531250D03*
D12*
X147709375Y-69531250D03*
D18*
X142629375Y-69531250D03*
D19*
X143899375Y-66991250D03*
D20*
X140349375Y-66991250D03*
X153799375Y-64451250D03*
D19*
X150249375Y-64451250D03*
%TD*%
D21*
%TO.C,D84*%
X249959375Y-170031250D03*
X249959375Y-166531250D03*
%TD*%
%TO.C,D63*%
X347734375Y-132406250D03*
X347734375Y-128906250D03*
%TD*%
%TO.C,D33*%
X78509375Y-112881250D03*
X78509375Y-109381250D03*
%TD*%
%TO.C,D77*%
X348066875Y-150981250D03*
X348066875Y-147481250D03*
%TD*%
D18*
%TO.C,K33*%
X76589375Y-107631250D03*
D12*
X71509375Y-107631250D03*
D18*
X66429375Y-107631250D03*
D19*
X67699375Y-105091250D03*
D20*
X64149375Y-105091250D03*
X77599375Y-102551250D03*
D19*
X74049375Y-102551250D03*
%TD*%
D21*
%TO.C,D60*%
X269009375Y-131931250D03*
X269009375Y-128431250D03*
%TD*%
D18*
%TO.C,K78*%
X52776875Y-164781250D03*
D12*
X47696875Y-164781250D03*
D18*
X42616875Y-164781250D03*
D19*
X43886875Y-162241250D03*
D20*
X40336875Y-162241250D03*
X53786875Y-159701250D03*
D19*
X50236875Y-159701250D03*
%TD*%
D21*
%TO.C,D13*%
X288059375Y-74781250D03*
X288059375Y-71281250D03*
%TD*%
%TO.C,D85*%
X269009375Y-170031250D03*
X269009375Y-166531250D03*
%TD*%
%TO.C,D5*%
X135659375Y-74781250D03*
X135659375Y-71281250D03*
%TD*%
D18*
%TO.C,K61*%
X295664375Y-126681250D03*
D12*
X290584375Y-126681250D03*
D18*
X285504375Y-126681250D03*
D19*
X286774375Y-124141250D03*
D20*
X283224375Y-124141250D03*
X296674375Y-121601250D03*
D19*
X293124375Y-121601250D03*
%TD*%
D21*
%TO.C,D62*%
X329000000Y-132250000D03*
X329000000Y-128750000D03*
%TD*%
D18*
%TO.C,K70*%
X152789375Y-145731250D03*
D12*
X147709375Y-145731250D03*
D18*
X142629375Y-145731250D03*
D19*
X143899375Y-143191250D03*
D20*
X140349375Y-143191250D03*
X153799375Y-140651250D03*
D19*
X150249375Y-140651250D03*
%TD*%
D21*
%TO.C,D59*%
X249959375Y-131931250D03*
X249959375Y-128431250D03*
%TD*%
D18*
%TO.C,K31*%
X365196875Y-88581250D03*
D12*
X360116875Y-88581250D03*
D18*
X355036875Y-88581250D03*
D19*
X356306875Y-86041250D03*
D20*
X352756875Y-86041250D03*
X366206875Y-83501250D03*
D19*
X362656875Y-83501250D03*
%TD*%
D18*
%TO.C,K10*%
X228989375Y-69531250D03*
D12*
X223909375Y-69531250D03*
D18*
X218829375Y-69531250D03*
D19*
X220099375Y-66991250D03*
D20*
X216549375Y-66991250D03*
X229999375Y-64451250D03*
D19*
X226449375Y-64451250D03*
%TD*%
D21*
%TO.C,D34*%
X97559375Y-112881250D03*
X97559375Y-109381250D03*
%TD*%
%TO.C,D68*%
X116609375Y-150981250D03*
X116609375Y-147481250D03*
%TD*%
%TO.C,D49*%
X54696875Y-131931250D03*
X54696875Y-128431250D03*
%TD*%
D18*
%TO.C,K42*%
X248039375Y-107631250D03*
D12*
X242959375Y-107631250D03*
D18*
X237879375Y-107631250D03*
D19*
X239149375Y-105091250D03*
D20*
X235599375Y-105091250D03*
X249049375Y-102551250D03*
D19*
X245499375Y-102551250D03*
%TD*%
D18*
%TO.C,K25*%
X248039375Y-88581250D03*
D12*
X242959375Y-88581250D03*
D18*
X237879375Y-88581250D03*
D19*
X239149375Y-86041250D03*
D20*
X235599375Y-86041250D03*
X249049375Y-83501250D03*
D19*
X245499375Y-83501250D03*
%TD*%
D21*
%TO.C,D57*%
X211859375Y-131931250D03*
X211859375Y-128431250D03*
%TD*%
D18*
%TO.C,K59*%
X248039375Y-126681250D03*
D12*
X242959375Y-126681250D03*
D18*
X237879375Y-126681250D03*
D19*
X239149375Y-124141250D03*
D20*
X235599375Y-124141250D03*
X249049375Y-121601250D03*
D19*
X245499375Y-121601250D03*
%TD*%
D18*
%TO.C,K82*%
X190889375Y-164781250D03*
D12*
X185809375Y-164781250D03*
D18*
X180729375Y-164781250D03*
D19*
X181999375Y-162241250D03*
D20*
X178449375Y-162241250D03*
X191899375Y-159701250D03*
D19*
X188349375Y-159701250D03*
%TD*%
D18*
%TO.C,K89*%
X365196875Y-164781250D03*
D12*
X360116875Y-164781250D03*
D18*
X355036875Y-164781250D03*
D19*
X356306875Y-162241250D03*
D20*
X352756875Y-162241250D03*
X366206875Y-159701250D03*
D19*
X362656875Y-159701250D03*
%TD*%
D21*
%TO.C,D89*%
X367116875Y-170031250D03*
X367116875Y-166531250D03*
%TD*%
%TO.C,D31*%
X367116875Y-93831250D03*
X367116875Y-90331250D03*
%TD*%
D25*
%TO.C,D1*%
X49934375Y-71081250D03*
D26*
X49934375Y-74981250D03*
%TD*%
D18*
%TO.C,K39*%
X190889375Y-107631250D03*
D12*
X185809375Y-107631250D03*
D18*
X180729375Y-107631250D03*
D19*
X181999375Y-105091250D03*
D20*
X178449375Y-105091250D03*
X191899375Y-102551250D03*
D19*
X188349375Y-102551250D03*
%TD*%
D18*
%TO.C,K88*%
X346146875Y-164781250D03*
D12*
X341066875Y-164781250D03*
D18*
X335986875Y-164781250D03*
D19*
X337256875Y-162241250D03*
D20*
X333706875Y-162241250D03*
X347156875Y-159701250D03*
D19*
X343606875Y-159701250D03*
%TD*%
D18*
%TO.C,K56*%
X190889375Y-126681250D03*
D12*
X185809375Y-126681250D03*
D18*
X180729375Y-126681250D03*
D19*
X181999375Y-124141250D03*
D20*
X178449375Y-124141250D03*
X191899375Y-121601250D03*
D19*
X188349375Y-121601250D03*
%TD*%
D21*
%TO.C,D46*%
X329016875Y-112881250D03*
X329016875Y-109381250D03*
%TD*%
%TO.C,D37*%
X154709375Y-112881250D03*
X154709375Y-109381250D03*
%TD*%
%TO.C,D81*%
X135659375Y-170031250D03*
X135659375Y-166531250D03*
%TD*%
%TO.C,D30*%
X347734375Y-94306250D03*
X347734375Y-90806250D03*
%TD*%
D18*
%TO.C,K26*%
X267089375Y-88581250D03*
D12*
X262009375Y-88581250D03*
D18*
X256929375Y-88581250D03*
D19*
X258199375Y-86041250D03*
D20*
X254649375Y-86041250D03*
X268099375Y-83501250D03*
D19*
X264549375Y-83501250D03*
%TD*%
D18*
%TO.C,K46*%
X327096875Y-107631250D03*
D12*
X322016875Y-107631250D03*
D18*
X316936875Y-107631250D03*
D19*
X318206875Y-105091250D03*
D20*
X314656875Y-105091250D03*
X328106875Y-102551250D03*
D19*
X324556875Y-102551250D03*
%TD*%
D18*
%TO.C,K20*%
X152789375Y-88581250D03*
D12*
X147709375Y-88581250D03*
D18*
X142629375Y-88581250D03*
D19*
X143899375Y-86041250D03*
D20*
X140349375Y-86041250D03*
X153799375Y-83501250D03*
D19*
X150249375Y-83501250D03*
%TD*%
D21*
%TO.C,D15*%
X49934375Y-93831250D03*
X49934375Y-90331250D03*
%TD*%
D18*
%TO.C,K35*%
X114689375Y-107631250D03*
D12*
X109609375Y-107631250D03*
D18*
X104529375Y-107631250D03*
D19*
X105799375Y-105091250D03*
D20*
X102249375Y-105091250D03*
X115699375Y-102551250D03*
D19*
X112149375Y-102551250D03*
%TD*%
D18*
%TO.C,K28*%
X305189375Y-88581250D03*
D12*
X300109375Y-88581250D03*
D18*
X295029375Y-88581250D03*
D19*
X296299375Y-86041250D03*
D20*
X292749375Y-86041250D03*
X306199375Y-83501250D03*
D19*
X302649375Y-83501250D03*
%TD*%
D18*
%TO.C,K63*%
X346146875Y-126681250D03*
D12*
X341066875Y-126681250D03*
D18*
X335986875Y-126681250D03*
D19*
X337256875Y-124141250D03*
D20*
X333706875Y-124141250D03*
X347156875Y-121601250D03*
D19*
X343606875Y-121601250D03*
%TD*%
D21*
%TO.C,D78*%
X54696875Y-170031250D03*
X54696875Y-166531250D03*
%TD*%
D18*
%TO.C,K21*%
X171839375Y-88581250D03*
D12*
X166759375Y-88581250D03*
D18*
X161679375Y-88581250D03*
D19*
X162949375Y-86041250D03*
D20*
X159399375Y-86041250D03*
X172849375Y-83501250D03*
D19*
X169299375Y-83501250D03*
%TD*%
D18*
%TO.C,K1*%
X48014375Y-69531250D03*
D12*
X42934375Y-69531250D03*
D18*
X37854375Y-69531250D03*
D19*
X39124375Y-66991250D03*
D20*
X35574375Y-66991250D03*
X49024375Y-64451250D03*
D19*
X45474375Y-64451250D03*
%TD*%
D21*
%TO.C,D11*%
X249959375Y-74781250D03*
X249959375Y-71281250D03*
%TD*%
D18*
%TO.C,K55*%
X171839375Y-126681250D03*
D12*
X166759375Y-126681250D03*
D18*
X161679375Y-126681250D03*
D19*
X162949375Y-124141250D03*
D20*
X159399375Y-124141250D03*
X172849375Y-121601250D03*
D19*
X169299375Y-121601250D03*
%TD*%
D18*
%TO.C,K36*%
X133739375Y-107631250D03*
D12*
X128659375Y-107631250D03*
D18*
X123579375Y-107631250D03*
D19*
X124849375Y-105091250D03*
D20*
X121299375Y-105091250D03*
X134749375Y-102551250D03*
D19*
X131199375Y-102551250D03*
%TD*%
D18*
%TO.C,K15*%
X48014375Y-88581250D03*
D12*
X42934375Y-88581250D03*
D18*
X37854375Y-88581250D03*
D19*
X39124375Y-86041250D03*
D20*
X35574375Y-86041250D03*
X49024375Y-83501250D03*
D19*
X45474375Y-83501250D03*
%TD*%
D21*
%TO.C,D51*%
X97559375Y-131931250D03*
X97559375Y-128431250D03*
%TD*%
%TO.C,D69*%
X135659375Y-150981250D03*
X135659375Y-147481250D03*
%TD*%
%TO.C,D35*%
X116609375Y-112881250D03*
X116609375Y-109381250D03*
%TD*%
%TO.C,D87*%
X329016875Y-170031250D03*
X329016875Y-166531250D03*
%TD*%
%TO.C,D22*%
X192809375Y-93831250D03*
X192809375Y-90331250D03*
%TD*%
%TO.C,D53*%
X135659375Y-131931250D03*
X135659375Y-128431250D03*
%TD*%
%TO.C,D56*%
X192809375Y-131931250D03*
X192809375Y-128431250D03*
%TD*%
%TO.C,D55*%
X173759375Y-131931250D03*
X173759375Y-128431250D03*
%TD*%
D18*
%TO.C,K67*%
X95639375Y-145731250D03*
D12*
X90559375Y-145731250D03*
D18*
X85479375Y-145731250D03*
D19*
X86749375Y-143191250D03*
D20*
X83199375Y-143191250D03*
X96649375Y-140651250D03*
D19*
X93099375Y-140651250D03*
%TD*%
D18*
%TO.C,K34*%
X95639375Y-107631250D03*
D12*
X90559375Y-107631250D03*
D18*
X85479375Y-107631250D03*
D19*
X86749375Y-105091250D03*
D20*
X83199375Y-105091250D03*
X96649375Y-102551250D03*
D19*
X93099375Y-102551250D03*
%TD*%
D18*
%TO.C,K54*%
X152789375Y-126681250D03*
D12*
X147709375Y-126681250D03*
D18*
X142629375Y-126681250D03*
D19*
X143899375Y-124141250D03*
D20*
X140349375Y-124141250D03*
X153799375Y-121601250D03*
D19*
X150249375Y-121601250D03*
%TD*%
D21*
%TO.C,D26*%
X269009375Y-93831250D03*
X269009375Y-90331250D03*
%TD*%
D18*
%TO.C,K5*%
X133739375Y-69531250D03*
D12*
X128659375Y-69531250D03*
D18*
X123579375Y-69531250D03*
D19*
X124849375Y-66991250D03*
D20*
X121299375Y-66991250D03*
X134749375Y-64451250D03*
D19*
X131199375Y-64451250D03*
%TD*%
D21*
%TO.C,D65*%
X54696875Y-150981250D03*
X54696875Y-147481250D03*
%TD*%
%TO.C,D82*%
X192809375Y-170031250D03*
X192809375Y-166531250D03*
%TD*%
%TO.C,D74*%
X230909375Y-150981250D03*
X230909375Y-147481250D03*
%TD*%
D18*
%TO.C,K75*%
X248039375Y-145731250D03*
D12*
X242959375Y-145731250D03*
D18*
X237879375Y-145731250D03*
D19*
X239149375Y-143191250D03*
D20*
X235599375Y-143191250D03*
X249049375Y-140651250D03*
D19*
X245499375Y-140651250D03*
%TD*%
D18*
%TO.C,K72*%
X190889375Y-145731250D03*
D12*
X185809375Y-145731250D03*
D18*
X180729375Y-145731250D03*
D19*
X181999375Y-143191250D03*
D20*
X178449375Y-143191250D03*
X191899375Y-140651250D03*
D19*
X188349375Y-140651250D03*
%TD*%
D21*
%TO.C,D48*%
X367116875Y-112881250D03*
X367116875Y-109381250D03*
%TD*%
D25*
%TO.C,D2*%
X78509375Y-71081250D03*
D26*
X78509375Y-74981250D03*
%TD*%
D21*
%TO.C,D20*%
X154709375Y-93831250D03*
X154709375Y-90331250D03*
%TD*%
%TO.C,D88*%
X348066875Y-170031250D03*
X348066875Y-166531250D03*
%TD*%
D18*
%TO.C,K29*%
X327096875Y-88581250D03*
D12*
X322016875Y-88581250D03*
D18*
X316936875Y-88581250D03*
D19*
X318206875Y-86041250D03*
D20*
X314656875Y-86041250D03*
X328106875Y-83501250D03*
D19*
X324556875Y-83501250D03*
%TD*%
D18*
%TO.C,K53*%
X133739375Y-126681250D03*
D12*
X128659375Y-126681250D03*
D18*
X123579375Y-126681250D03*
D19*
X124849375Y-124141250D03*
D20*
X121299375Y-124141250D03*
X134749375Y-121601250D03*
D19*
X131199375Y-121601250D03*
%TD*%
D18*
%TO.C,K4*%
X114689375Y-69531250D03*
D12*
X109609375Y-69531250D03*
D18*
X104529375Y-69531250D03*
D19*
X105799375Y-66991250D03*
D20*
X102249375Y-66991250D03*
X115699375Y-64451250D03*
D19*
X112149375Y-64451250D03*
%TD*%
D21*
%TO.C,D4*%
X116609375Y-74781250D03*
X116609375Y-71281250D03*
%TD*%
%TO.C,D45*%
X307109375Y-112881250D03*
X307109375Y-109381250D03*
%TD*%
D18*
%TO.C,K83*%
X228989375Y-164781250D03*
D12*
X223909375Y-164781250D03*
D18*
X218829375Y-164781250D03*
D19*
X220099375Y-162241250D03*
D20*
X216549375Y-162241250D03*
X229999375Y-159701250D03*
D19*
X226449375Y-159701250D03*
%TD*%
D21*
%TO.C,D54*%
X154709375Y-131931250D03*
X154709375Y-128431250D03*
%TD*%
%TO.C,D17*%
X97559375Y-93831250D03*
X97559375Y-90331250D03*
%TD*%
D18*
%TO.C,K19*%
X133739375Y-88581250D03*
D12*
X128659375Y-88581250D03*
D18*
X123579375Y-88581250D03*
D19*
X124849375Y-86041250D03*
D20*
X121299375Y-86041250D03*
X134749375Y-83501250D03*
D19*
X131199375Y-83501250D03*
%TD*%
D21*
%TO.C,D80*%
X97559375Y-170031250D03*
X97559375Y-166531250D03*
%TD*%
%TO.C,D7*%
X173759375Y-74781250D03*
X173759375Y-71281250D03*
%TD*%
%TO.C,D6*%
X154709375Y-74781250D03*
X154709375Y-71281250D03*
%TD*%
%TO.C,D28*%
X307109375Y-93831250D03*
X307109375Y-90331250D03*
%TD*%
%TO.C,D39*%
X192809375Y-112881250D03*
X192809375Y-109381250D03*
%TD*%
%TO.C,D42*%
X249959375Y-112881250D03*
X249959375Y-109381250D03*
%TD*%
%TO.C,D16*%
X78509375Y-93831250D03*
X78509375Y-90331250D03*
%TD*%
D18*
%TO.C,K2*%
X76589375Y-69531250D03*
D12*
X71509375Y-69531250D03*
D18*
X66429375Y-69531250D03*
D19*
X67699375Y-66991250D03*
D20*
X64149375Y-66991250D03*
X77599375Y-64451250D03*
D19*
X74049375Y-64451250D03*
%TD*%
D21*
%TO.C,D19*%
X135659375Y-93831250D03*
X135659375Y-90331250D03*
%TD*%
D18*
%TO.C,K27*%
X286139375Y-88581250D03*
D12*
X281059375Y-88581250D03*
D18*
X275979375Y-88581250D03*
D19*
X277249375Y-86041250D03*
D20*
X273699375Y-86041250D03*
X287149375Y-83501250D03*
D19*
X283599375Y-83501250D03*
%TD*%
D21*
%TO.C,D18*%
X116609375Y-93831250D03*
X116609375Y-90331250D03*
%TD*%
D18*
%TO.C,K87*%
X327096875Y-164781250D03*
D12*
X322016875Y-164781250D03*
D18*
X316936875Y-164781250D03*
D19*
X318206875Y-162241250D03*
D20*
X314656875Y-162241250D03*
X328106875Y-159701250D03*
D19*
X324556875Y-159701250D03*
%TD*%
D18*
%TO.C,K14*%
X305189375Y-69531250D03*
D12*
X300109375Y-69531250D03*
D18*
X295029375Y-69531250D03*
D19*
X296299375Y-66991250D03*
D20*
X292749375Y-66991250D03*
X306199375Y-64451250D03*
D19*
X302649375Y-64451250D03*
%TD*%
D18*
%TO.C,K49*%
X52776875Y-126681250D03*
D12*
X47696875Y-126681250D03*
D18*
X42616875Y-126681250D03*
D19*
X43886875Y-124141250D03*
D20*
X40336875Y-124141250D03*
X53786875Y-121601250D03*
D19*
X50236875Y-121601250D03*
%TD*%
D18*
%TO.C,K41*%
X228989375Y-107631250D03*
D12*
X223909375Y-107631250D03*
D18*
X218829375Y-107631250D03*
D19*
X220099375Y-105091250D03*
D20*
X216549375Y-105091250D03*
X229999375Y-102551250D03*
D19*
X226449375Y-102551250D03*
%TD*%
D18*
%TO.C,K71*%
X171839375Y-145731250D03*
D12*
X166759375Y-145731250D03*
D18*
X161679375Y-145731250D03*
D19*
X162949375Y-143191250D03*
D20*
X159399375Y-143191250D03*
X172849375Y-140651250D03*
D19*
X169299375Y-140651250D03*
%TD*%
D18*
%TO.C,K7*%
X171839375Y-69531250D03*
D12*
X166759375Y-69531250D03*
D18*
X161679375Y-69531250D03*
D19*
X162949375Y-66991250D03*
D20*
X159399375Y-66991250D03*
X172849375Y-64451250D03*
D19*
X169299375Y-64451250D03*
%TD*%
D21*
%TO.C,D66*%
X78509375Y-150981250D03*
X78509375Y-147481250D03*
%TD*%
D18*
%TO.C,K69*%
X133739375Y-145731250D03*
D12*
X128659375Y-145731250D03*
D18*
X123579375Y-145731250D03*
D19*
X124849375Y-143191250D03*
D20*
X121299375Y-143191250D03*
X134749375Y-140651250D03*
D19*
X131199375Y-140651250D03*
%TD*%
D18*
%TO.C,K76*%
X286139375Y-145731250D03*
D12*
X281059375Y-145731250D03*
D18*
X275979375Y-145731250D03*
D19*
X277249375Y-143191250D03*
D20*
X273699375Y-143191250D03*
X287149375Y-140651250D03*
D19*
X283599375Y-140651250D03*
%TD*%
D18*
%TO.C,K84*%
X248039375Y-164781250D03*
D12*
X242959375Y-164781250D03*
D18*
X237879375Y-164781250D03*
D19*
X239149375Y-162241250D03*
D20*
X235599375Y-162241250D03*
X249049375Y-159701250D03*
D19*
X245499375Y-159701250D03*
%TD*%
D18*
%TO.C,K52*%
X114689375Y-126681250D03*
D12*
X109609375Y-126681250D03*
D18*
X104529375Y-126681250D03*
D19*
X105799375Y-124141250D03*
D20*
X102249375Y-124141250D03*
X115699375Y-121601250D03*
D19*
X112149375Y-121601250D03*
%TD*%
D21*
%TO.C,D25*%
X249959375Y-93831250D03*
X249959375Y-90331250D03*
%TD*%
D18*
%TO.C,K40*%
X209939375Y-107631250D03*
D12*
X204859375Y-107631250D03*
D18*
X199779375Y-107631250D03*
D19*
X201049375Y-105091250D03*
D20*
X197499375Y-105091250D03*
X210949375Y-102551250D03*
D19*
X207399375Y-102551250D03*
%TD*%
D18*
%TO.C,K58*%
X228989375Y-126681250D03*
D12*
X223909375Y-126681250D03*
D18*
X218829375Y-126681250D03*
D19*
X220099375Y-124141250D03*
D20*
X216549375Y-124141250D03*
X229999375Y-121601250D03*
D19*
X226449375Y-121601250D03*
%TD*%
D18*
%TO.C,K51*%
X95639375Y-126681250D03*
D12*
X90559375Y-126681250D03*
D18*
X85479375Y-126681250D03*
D19*
X86749375Y-124141250D03*
D20*
X83199375Y-124141250D03*
X96649375Y-121601250D03*
D19*
X93099375Y-121601250D03*
%TD*%
D21*
%TO.C,D61*%
X297584375Y-131931250D03*
X297584375Y-128431250D03*
%TD*%
D18*
%TO.C,K73*%
X209939375Y-145731250D03*
D12*
X204859375Y-145731250D03*
D18*
X199779375Y-145731250D03*
D19*
X201049375Y-143191250D03*
D20*
X197499375Y-143191250D03*
X210949375Y-140651250D03*
D19*
X207399375Y-140651250D03*
%TD*%
D18*
%TO.C,K60*%
X267089375Y-126681250D03*
D12*
X262009375Y-126681250D03*
D18*
X256929375Y-126681250D03*
D19*
X258199375Y-124141250D03*
D20*
X254649375Y-124141250D03*
X268099375Y-121601250D03*
D19*
X264549375Y-121601250D03*
%TD*%
D18*
%TO.C,K86*%
X295664375Y-164781250D03*
D12*
X290584375Y-164781250D03*
D18*
X285504375Y-164781250D03*
D19*
X286774375Y-162241250D03*
D20*
X283224375Y-162241250D03*
X296674375Y-159701250D03*
D19*
X293124375Y-159701250D03*
%TD*%
D18*
%TO.C,K65*%
X52776875Y-145731250D03*
D12*
X47696875Y-145731250D03*
D18*
X42616875Y-145731250D03*
D19*
X43886875Y-143191250D03*
D20*
X40336875Y-143191250D03*
X53786875Y-140651250D03*
D19*
X50236875Y-140651250D03*
%TD*%
D21*
%TO.C,D76*%
X288059375Y-150981250D03*
X288059375Y-147481250D03*
%TD*%
D18*
%TO.C,K16*%
X76589375Y-88581250D03*
D12*
X71509375Y-88581250D03*
D18*
X66429375Y-88581250D03*
D19*
X67699375Y-86041250D03*
D20*
X64149375Y-86041250D03*
X77599375Y-83501250D03*
D19*
X74049375Y-83501250D03*
%TD*%
D21*
%TO.C,D52*%
X116609375Y-131931250D03*
X116609375Y-128431250D03*
%TD*%
D18*
%TO.C,K22*%
X190889375Y-88581250D03*
D12*
X185809375Y-88581250D03*
D18*
X180729375Y-88581250D03*
D19*
X181999375Y-86041250D03*
D20*
X178449375Y-86041250D03*
X191899375Y-83501250D03*
D19*
X188349375Y-83501250D03*
%TD*%
D21*
%TO.C,D41*%
X230909375Y-112881250D03*
X230909375Y-109381250D03*
%TD*%
%TO.C,D32*%
X54696875Y-112881250D03*
X54696875Y-109381250D03*
%TD*%
%TO.C,D58*%
X230909375Y-131931250D03*
X230909375Y-128431250D03*
%TD*%
D18*
%TO.C,K77*%
X346146875Y-145731250D03*
D12*
X341066875Y-145731250D03*
D18*
X335986875Y-145731250D03*
D19*
X337256875Y-143191250D03*
D20*
X333706875Y-143191250D03*
X347156875Y-140651250D03*
D19*
X343606875Y-140651250D03*
%TD*%
D21*
%TO.C,D43*%
X269009375Y-112881250D03*
X269009375Y-109381250D03*
%TD*%
%TO.C,D75*%
X249959375Y-150981250D03*
X249959375Y-147481250D03*
%TD*%
%TO.C,D47*%
X347734375Y-113356250D03*
X347734375Y-109856250D03*
%TD*%
%TO.C,D86*%
X297584375Y-170031250D03*
X297584375Y-166531250D03*
%TD*%
D18*
%TO.C,K66*%
X76589375Y-145731250D03*
D12*
X71509375Y-145731250D03*
D18*
X66429375Y-145731250D03*
D19*
X67699375Y-143191250D03*
D20*
X64149375Y-143191250D03*
X77599375Y-140651250D03*
D19*
X74049375Y-140651250D03*
%TD*%
D21*
%TO.C,D38*%
X173759375Y-112881250D03*
X173759375Y-109381250D03*
%TD*%
D18*
%TO.C,K13*%
X286139375Y-69531250D03*
D12*
X281059375Y-69531250D03*
D18*
X275979375Y-69531250D03*
D19*
X277249375Y-66991250D03*
D20*
X273699375Y-66991250D03*
X287149375Y-64451250D03*
D19*
X283599375Y-64451250D03*
%TD*%
D21*
%TO.C,D8*%
X192809375Y-74781250D03*
X192809375Y-71281250D03*
%TD*%
D27*
%TO.C,R1*%
X47496875Y-55756250D03*
X47496875Y-57406250D03*
%TD*%
D21*
%TO.C,D27*%
X288059375Y-93831250D03*
X288059375Y-90331250D03*
%TD*%
D18*
%TO.C,K8*%
X190889375Y-69531250D03*
D12*
X185809375Y-69531250D03*
D18*
X180729375Y-69531250D03*
D19*
X181999375Y-66991250D03*
D20*
X178449375Y-66991250D03*
X191899375Y-64451250D03*
D19*
X188349375Y-64451250D03*
%TD*%
D18*
%TO.C,K30*%
X346146875Y-88581250D03*
D12*
X341066875Y-88581250D03*
D18*
X335986875Y-88581250D03*
D19*
X337256875Y-86041250D03*
D20*
X333706875Y-86041250D03*
X347156875Y-83501250D03*
D19*
X343606875Y-83501250D03*
%TD*%
D21*
%TO.C,D67*%
X97559375Y-150981250D03*
X97559375Y-147481250D03*
%TD*%
D18*
%TO.C,K11*%
X248039375Y-69531250D03*
D12*
X242959375Y-69531250D03*
D18*
X237879375Y-69531250D03*
D19*
X239149375Y-66991250D03*
D20*
X235599375Y-66991250D03*
X249049375Y-64451250D03*
D19*
X245499375Y-64451250D03*
%TD*%
D18*
%TO.C,K17*%
X95639375Y-88581250D03*
D12*
X90559375Y-88581250D03*
D18*
X85479375Y-88581250D03*
D19*
X86749375Y-86041250D03*
D20*
X83199375Y-86041250D03*
X96649375Y-83501250D03*
D19*
X93099375Y-83501250D03*
%TD*%
D18*
%TO.C,K48*%
X365196875Y-107631250D03*
D12*
X360116875Y-107631250D03*
D18*
X355036875Y-107631250D03*
D19*
X356306875Y-105091250D03*
D20*
X352756875Y-105091250D03*
X366206875Y-102551250D03*
D19*
X362656875Y-102551250D03*
%TD*%
D18*
%TO.C,K9*%
X209939375Y-69531250D03*
D12*
X204859375Y-69531250D03*
D18*
X199779375Y-69531250D03*
D19*
X201049375Y-66991250D03*
D20*
X197499375Y-66991250D03*
X210949375Y-64451250D03*
D19*
X207399375Y-64451250D03*
%TD*%
D18*
%TO.C,K57*%
X209939375Y-126681250D03*
D12*
X204859375Y-126681250D03*
D18*
X199779375Y-126681250D03*
D19*
X201049375Y-124141250D03*
D20*
X197499375Y-124141250D03*
X210949375Y-121601250D03*
D19*
X207399375Y-121601250D03*
%TD*%
D18*
%TO.C,K3*%
X95639375Y-69531250D03*
D12*
X90559375Y-69531250D03*
D18*
X85479375Y-69531250D03*
D19*
X86749375Y-66991250D03*
D20*
X83199375Y-66991250D03*
X96649375Y-64451250D03*
D19*
X93099375Y-64451250D03*
%TD*%
D18*
%TO.C,K37*%
X152789375Y-107631250D03*
D12*
X147709375Y-107631250D03*
D18*
X142629375Y-107631250D03*
D19*
X143899375Y-105091250D03*
D20*
X140349375Y-105091250D03*
X153799375Y-102551250D03*
D19*
X150249375Y-102551250D03*
%TD*%
M02*
